<svg width="153" height="266" viewBox="0 0 153 266" fill="none" xmlns="http://www.w3.org/2000/svg">
<path d="M134.68 58.7007V102.479C134.68 103.114 134.665 103.747 134.651 104.38C134.623 105.69 134.55 106.999 134.435 108.295C134.407 108.741 134.362 109.186 134.305 109.633C134.117 111.49 133.86 113.318 133.528 115.133C133.411 115.738 133.297 116.327 133.166 116.918C133.152 117.047 133.124 117.163 133.095 117.278C132.979 117.883 132.835 118.474 132.692 119.063C132.634 119.38 132.548 119.696 132.476 120.014C132.403 120.287 132.332 120.562 132.247 120.835C131.943 122.015 131.598 123.167 131.237 124.318C131.065 124.866 130.893 125.398 130.705 125.945C130.689 126.003 130.661 126.06 130.647 126.118C130.474 126.606 130.302 127.096 130.129 127.585C130.072 127.729 130.015 127.872 129.956 128.032C129.784 128.492 129.611 128.953 129.424 129.414C129.208 129.975 128.978 130.523 128.747 131.07C128.546 131.56 128.33 132.049 128.114 132.539C128.086 132.626 128.042 132.697 128.014 132.783C127.769 133.301 127.539 133.82 127.294 134.323C127.049 134.855 126.79 135.388 126.515 135.922C125.997 136.972 125.436 138.024 124.874 139.046C124.615 139.506 124.356 139.967 124.096 140.428C121.879 144.243 119.418 147.828 116.741 151.138C116.379 151.613 116.007 152.073 115.618 152.52C115.084 153.167 114.537 153.801 113.991 154.42C113.501 154.967 113.012 155.514 112.508 156.047C111.126 157.53 109.714 158.941 108.275 160.266C107.988 160.554 107.684 160.813 107.382 161.086C106.893 161.533 106.404 161.964 105.899 162.382C105.511 162.727 105.108 163.058 104.703 163.39C103.667 164.238 102.631 165.059 101.581 165.822C101.148 166.154 100.701 166.47 100.256 166.773C99.5364 167.291 98.8027 167.781 98.0676 168.255C97.6643 168.528 97.247 168.787 96.8284 169.033C95.3596 169.94 93.8781 170.774 92.4093 171.494C92.0495 171.68 91.6896 171.854 91.3298 172.026C90.9685 172.198 90.5961 172.372 90.2068 172.544C89.7308 172.76 89.2561 172.961 88.7814 173.149C88.5938 173.236 88.4062 173.307 88.2199 173.365C87.6599 173.596 87.083 173.811 86.5215 173.998C85.8158 174.257 85.0961 174.472 84.3918 174.674C83.9017 174.818 83.399 174.947 82.909 175.062C82.8795 175.077 82.8515 175.091 82.8081 175.091C82.3181 175.206 81.8294 175.322 81.3393 175.408C81.2091 175.437 81.0817 175.465 80.9515 175.479C80.5482 175.55 80.145 175.623 79.7417 175.667C79.1662 175.754 78.5907 175.825 78.0152 175.854C77.815 175.882 77.6274 175.898 77.4244 175.898C76.9651 175.927 76.5044 175.941 76.0564 175.941H76.0144C75.5677 175.941 75.121 175.927 74.6758 175.898C74.5021 175.898 74.3299 175.884 74.1563 175.854C73.7544 175.84 73.3358 175.796 72.9045 175.738C72.8177 175.738 72.7169 175.724 72.6315 175.71C72.098 175.639 71.5659 175.552 71.0184 175.451C70.5592 175.38 70.0985 175.277 69.6224 175.163C67.1609 174.601 64.6279 173.753 62.0655 172.614C59.877 171.65 57.6605 170.485 55.458 169.131C54.349 168.454 53.2401 167.735 52.1465 166.971C51.599 166.582 51.0529 166.194 50.5055 165.791C48.7916 164.538 47.0932 163.171 45.4227 161.702C44.9635 161.285 44.5028 160.868 44.0421 160.435C43.5815 160.018 43.1208 159.587 42.6741 159.17C41.5498 158.09 40.4562 156.967 39.3906 155.801C38.9734 155.355 38.5561 154.895 38.1375 154.419C36.9865 153.123 35.8635 151.785 34.798 150.387C34.3793 149.883 33.9915 149.365 33.6022 148.847C32.1488 146.919 30.7668 144.903 29.4702 142.815C29.1258 142.254 28.7799 141.677 28.4495 141.117C28.0462 140.44 27.6583 139.75 27.2691 139.058C25.8297 136.467 24.5037 133.775 23.3527 130.996C23.1805 130.593 23.0069 130.189 22.8626 129.788C22.6316 129.27 22.43 128.736 22.2438 128.218C21.9567 127.455 21.6837 126.692 21.4232 125.929C21.1642 125.166 20.9206 124.388 20.6755 123.611C20.4445 122.862 20.2289 122.115 20.0272 121.351C19.7962 120.545 19.582 119.724 19.3943 118.89C19.3789 118.803 19.3509 118.718 19.3369 118.631C19.0639 117.48 18.8189 116.313 18.6032 115.133C18.3148 113.577 18.0852 111.994 17.9115 110.396C17.8401 109.892 17.7967 109.388 17.7533 108.884C17.6959 108.352 17.6539 107.832 17.6245 107.3C17.5517 106.336 17.5083 105.357 17.4789 104.378C17.4649 103.744 17.4495 103.111 17.4495 102.478V58.7007C17.4495 26.3532 43.6655 0.124619 76.013 0.0952148H76.0704C80.5342 0.0952148 84.8804 0.597888 89.0544 1.53462C92.87 2.39855 96.5413 3.63633 100.025 5.20596C104.776 7.33707 109.195 10.0717 113.169 13.3397C116.508 16.0757 119.547 19.1562 122.194 22.5531C130.016 32.5155 134.68 45.0543 134.68 58.7007Z" fill="#ECC19C"/>
<path d="M152.727 265.771V265.785H0V265.771C0 257.149 1.42541 248.841 4.0746 241.111C4.54927 239.715 5.06734 238.333 5.62882 236.965V236.951C6.1889 235.583 6.77979 234.244 7.41268 232.92C9.93304 227.607 13.0709 222.641 16.7128 218.091C17.6342 216.955 18.5695 215.846 19.5356 214.78C20.0103 214.233 20.5144 213.7 21.0185 213.168C21.5225 212.65 22.0266 212.132 22.5447 211.614C25.1224 209.038 27.885 206.677 30.7947 204.503C32.2481 203.423 33.7169 202.415 35.2431 201.436C36.7693 200.471 38.3236 199.55 39.9072 198.686C39.9366 198.658 39.9646 198.658 39.9646 198.658C40.5835 198.328 41.1884 197.968 41.7933 197.593C42.989 196.873 44.168 196.096 45.2924 195.261C45.8679 194.858 46.4153 194.441 46.9614 193.994C48.2566 192.958 49.5084 191.849 50.7042 190.683C51.092 190.295 51.4827 189.905 51.8705 189.502C52.6756 188.666 53.4387 187.788 54.1739 186.896C54.5351 186.465 54.895 186.018 55.2254 185.572C55.5713 185.127 55.9017 184.666 56.2336 184.204C58.7959 180.633 60.8542 176.704 62.3665 172.513C64.1951 167.417 65.1879 161.932 65.1879 156.203L76.3167 156.26L87.7605 156.317C87.7605 161.974 88.7253 167.401 90.5105 172.441C91.9948 176.644 94.0516 180.574 96.572 184.145C99.1918 187.858 102.316 191.17 105.857 194.005C106.39 194.438 106.922 194.855 107.456 195.243C107.974 195.632 108.506 196.006 109.053 196.366C109.17 196.453 109.269 196.524 109.385 196.597C109.903 196.943 110.421 197.289 110.969 197.605C111.558 197.965 112.165 198.325 112.768 198.657C112.868 198.685 112.956 198.728 113.027 198.787C114.294 199.493 115.548 200.226 116.771 200.989C117.361 201.349 117.952 201.723 118.527 202.142C119.723 202.919 120.889 203.739 122.025 204.603C122.025 204.619 122.04 204.619 122.04 204.619H122.054C124.963 206.792 127.713 209.167 130.289 211.73C144.162 225.549 152.727 244.638 152.727 265.771Z" fill="#ECC19C"/>
<path d="M152.729 265.774H0.00146484C0.00146484 257.15 1.42827 248.844 4.07606 241.114C4.55072 239.716 5.0688 238.336 5.63028 236.968C5.61487 236.952 5.63028 236.952 5.63028 236.952C6.17776 235.584 6.78125 234.246 7.41414 232.922C9.9345 227.61 13.0724 222.643 16.7143 218.094C17.6356 216.956 18.5724 215.848 19.5371 214.783C20.0118 214.235 20.5158 213.703 21.0199 213.171C21.524 212.653 22.0281 212.135 22.5461 211.617C25.1239 209.04 27.8865 206.678 30.7961 204.505C32.2495 203.426 33.7184 202.418 35.2446 201.439C36.7708 200.46 38.325 199.539 39.9087 198.675C39.9381 198.647 39.9661 198.661 39.9661 198.661V198.647C40.585 198.301 41.1898 197.955 41.7947 197.595C43.594 196.502 45.3232 195.292 46.9349 193.967C46.9489 193.981 46.9489 193.981 46.9643 193.995C54.4204 201.625 64.8001 206.36 76.3181 206.39H76.433C87.9496 206.39 98.3727 201.639 105.858 194.009L105.874 193.995C106.894 194.844 107.96 195.636 109.055 196.37C109.17 196.455 109.271 196.528 109.385 196.6C109.903 196.946 110.435 197.276 110.969 197.608C111.56 197.968 112.165 198.314 112.768 198.644C112.869 198.672 112.94 198.729 113.027 198.773C114.294 199.478 115.548 200.212 116.771 200.989C117.361 201.349 117.952 201.723 118.527 202.142C119.723 202.905 120.889 203.739 122.025 204.603H122.054C124.978 206.792 127.727 209.166 130.289 211.729C144.164 225.552 152.729 244.641 152.729 265.774Z" fill="#C7D4E2"/>
<path d="M122.497 22.4537C119.632 28.9464 115.903 34.9785 111.498 40.4491C111.239 40.7669 110.98 41.0834 110.707 41.3998C101.681 52.2682 89.8482 60.7198 76.3153 65.6569C72.7588 66.9675 69.0888 68.0317 65.3167 68.8242C62.7977 69.3563 60.2353 69.7749 57.6296 70.0774C54.6345 70.4078 51.5835 70.5814 48.489 70.5814C44.9479 70.5814 41.4782 70.3504 38.0673 69.9051C34.7264 69.4879 31.4584 68.869 28.2631 68.0345C26.4344 67.5738 24.6492 67.0417 22.8779 66.4508C21.1361 65.8754 19.4376 65.2411 17.7532 64.5508V58.6055C17.7532 26.258 43.9692 0.0294043 76.3167 0H76.3741C80.8379 0 85.1842 0.502673 89.3582 1.43941C93.1737 2.30333 96.8451 3.54111 100.329 5.11074C105.08 7.24185 109.499 9.97645 113.472 13.2445C116.811 15.9749 119.849 19.0568 122.497 22.4537Z" fill="#543E36"/>
<path d="M134.98 58.6013V70.1319C124.988 62.4014 116.711 52.6266 110.737 41.4558C110.723 41.4418 110.723 41.4124 110.707 41.3984C104.835 30.4292 101.191 18.12 100.329 5.1051C105.08 7.23621 109.499 9.97081 113.473 13.2389C116.812 15.9749 119.85 19.0553 122.498 22.4522C130.316 32.4161 134.98 44.9549 134.98 58.6013Z" fill="#543E36"/>
<path d="M24.6185 63.1225C24.001 64.202 23.4381 65.311 22.8766 66.448C22.6624 66.8932 22.4454 67.3693 22.2297 67.83C19.3943 74.1351 17.9675 80.3254 17.7659 85.9122C17.7659 86.0704 17.7505 86.2426 17.7505 86.4022V63.8282C17.7505 63.0217 17.7799 62.2291 17.7799 61.452C20.0552 62.0429 22.3292 62.6184 24.6185 63.1225Z" fill="#543E36"/>
<path d="M128.141 63.1225C129.012 64.6529 129.789 66.2211 130.535 67.8286C133.459 74.3297 134.89 80.6796 135.013 86.4065V63.8212C135.013 63.0273 134.984 62.2334 134.984 61.4576C132.711 62.0443 130.442 62.6114 128.141 63.1225Z" fill="#543E36"/>
<path d="M128.026 68.9391C128.026 68.694 127.839 68.4784 127.594 68.449C125.521 68.1326 116.192 66.85 106.158 66.85C94.7701 66.85 80.0721 70.4205 77.5098 70.4205H75.2358C74.0401 70.4205 70.2119 69.6434 65.3168 68.8229C59.688 67.8721 52.6632 66.85 46.5877 66.85C39.2464 66.85 32.2776 67.5417 28.2618 68.0304C26.793 68.204 25.7135 68.3608 25.152 68.4476C24.9069 68.477 24.7193 68.6926 24.7193 68.9377L24.6045 75.0552C24.6045 75.2708 24.7347 75.4584 24.9349 75.5452L25.6252 75.7903C26.6474 76.1795 26.562 94.6202 32.0606 99.2269C35.3286 101.947 38.2369 103.502 50.4872 103.502C57.5849 103.502 62.0473 101.588 66.2801 95.872C69.3326 91.7694 72.0378 82.066 72.0378 82.066C72.8583 78.0642 75.8379 77.7478 76.314 77.7183C76.3434 77.7183 76.3714 77.7183 76.3714 77.7183C76.4708 77.7183 79.8271 77.7758 80.705 82.066C80.705 82.066 83.4116 91.7694 86.4627 95.872C90.6941 101.588 95.1579 103.502 102.254 103.502C114.506 103.502 117.413 101.947 120.681 99.2269C126.181 94.6202 126.094 76.1795 127.116 75.7903L127.808 75.5452C128.008 75.4584 128.138 75.2722 128.138 75.0552L128.026 68.9391ZM66.2815 90.7626C64.4823 95.0235 59.8322 100.523 53.2821 100.854C33.6316 101.847 32.7243 96.3621 31.4571 92.0144C30.1759 87.6668 29.8455 83.8512 30.3481 79.5036C30.8662 75.156 31.9612 72.6076 33.934 71.3264C34.7826 70.7649 35.7053 70.2609 38.066 69.901C40.1818 69.5846 43.4498 69.3969 48.891 69.3969C52.0429 69.3969 54.9945 69.642 57.6283 70.0732C64.6251 71.1962 69.3466 73.5724 69.3466 75.9177C69.3466 77.5181 68.9433 84.4561 66.2815 90.7626ZM121.287 92.0144C120.021 96.3621 119.114 101.847 99.4636 100.854C92.9134 100.523 88.2633 95.0235 86.4641 90.7626C83.8009 84.4575 83.399 77.5181 83.399 75.9205C83.399 72.6958 92.3533 69.3983 103.855 69.3983C115.357 69.3983 117.199 70.2623 118.813 71.3278C120.784 72.609 121.878 75.1574 122.397 79.505C122.902 83.8526 122.57 87.6682 121.287 92.0144Z" fill="#1A1A1A"/>
<path d="M76.3615 134.69C84.2918 134.69 90.7206 132.703 90.7206 130.251C90.7206 127.8 84.2918 125.812 76.3615 125.812C68.4312 125.812 62.0024 127.8 62.0024 130.251C62.0024 132.703 68.4312 134.69 76.3615 134.69Z" fill="#ECC19C"/>
<path d="M59.6135 197.122L76.3614 217.195L93.1106 197.122H59.6135Z" fill="#C7D4E2"/>
<path d="M76.3559 197.017L76.3139 197.088L76.2985 197.118L69.3451 208.793L62.8523 219.675L45.2742 195.246C45.8357 194.843 46.3971 194.411 46.9306 193.965C46.9446 193.979 46.9446 193.979 46.96 193.994C50.4857 191.187 53.625 187.891 56.2308 184.205L76.3139 196.989L76.3559 197.017Z" fill="#E7ECF2"/>
<path d="M107.452 195.246L89.8735 219.675L83.3807 208.793L76.4119 197.118L76.3545 197.017L96.5678 184.148C99.1876 187.861 102.311 191.173 105.853 194.008C106.387 194.439 106.918 194.858 107.452 195.246Z" fill="#E7ECF2"/>
<path d="M38.963 132.675L26.0828 124.749C24.7988 123.958 23.1167 124.369 22.3411 125.662C21.9056 126.387 21.8345 127.275 22.1488 128.061L25.1217 135.493C25.6063 136.705 26.2153 137.862 26.939 138.948L34.2517 149.917L38.4523 154.818L43.1961 159.561C46.0928 162.458 49.2915 165.036 52.7375 167.251L56.1485 169.444C56.951 169.96 57.801 170.398 58.6869 170.753C60.124 171.327 61.6415 171.676 63.1854 171.787L70.657 172.32H86.7244C88.1436 172.32 89.5586 172.165 90.944 171.857C93.7212 171.24 96.3292 170.021 98.5842 168.286L104.262 163.919L105.13 163.137C109.213 159.463 113.028 155.5 116.545 151.28L118.264 149.217L123.865 142.216C126.187 138.964 128.047 135.406 129.391 131.643L130.804 127.688C130.845 127.572 130.876 127.453 130.896 127.331C131.175 125.659 129.439 124.377 127.922 125.135L111.142 133.525C109.834 134.179 108.661 135.074 107.685 136.163L90.96 154.818L88.3126 157.058C84.1658 160.567 78.8402 162.368 73.4148 162.097C69.7699 161.914 66.2321 160.803 63.1374 158.869L61.4583 157.82C58.286 155.837 55.5269 153.26 53.3328 150.23L44.0119 137.358C42.6525 135.481 40.9369 133.89 38.963 132.675Z" fill="#543E36"/>
<path d="M74.8576 120.513L52.4543 129.614L50.354 135.215C56.1882 132.881 68.2766 128.214 69.9568 128.214H81.8586L97.9609 135.215L95.8606 129.614L74.8576 120.513Z" fill="#543E36"/>
<rect x="66.4563" y="147.117" width="16.8024" height="8.40122" fill="#543E36"/>
</svg>
