<svg width="126" height="126" viewBox="0 0 126 126" fill="none" xmlns="http://www.w3.org/2000/svg">
<path d="M6.9865 0H118.692C122.539 0 125.6 3.0615 125.6 6.908V118.692C125.6 122.46 122.539 125.6 118.692 125.6H86.664V76.93H102.992L105.426 58.0115H86.664V45.9225C86.664 40.4275 88.234 36.6595 96.084 36.6595H106.132V19.7035C104.405 19.468 98.439 18.997 91.531 18.997C77.0085 18.997 67.1175 27.789 67.1175 44.0385V58.0115H50.711V76.93H67.1175V125.6H6.9865C5.14709 125.6 3.38184 124.875 2.07385 123.582C0.765857 122.288 0.0206676 120.531 0 118.692V6.908C0 3.0615 3.14 0 6.9865 0Z" fill="#0A66C2"/>
</svg>
