<svg width="30" height="9" viewBox="0 0 30 9" fill="none" xmlns="http://www.w3.org/2000/svg">
<path d="M1.62809 1.93C1.92809 1.67667 2.24475 1.49333 2.57809 1.38C2.91809 1.26667 3.31809 1.21 3.77809 1.21C4.23809 1.21 4.78475 1.29667 5.41809 1.47L5.20809 2.51C4.76142 2.40333 4.29475 2.35 3.80809 2.35C3.32142 2.35 2.92142 2.52 2.60809 2.86C2.29475 3.19333 2.13809 3.77667 2.13809 4.61C2.13809 6.16333 2.65475 6.94 3.68809 6.94C3.89475 6.94 4.11142 6.92 4.33809 6.88V5.64H3.39809V4.59H5.64809V7.69C4.91475 7.98333 4.16809 8.13 3.40809 8.13C2.64809 8.13 2.00809 7.85333 1.48809 7.3C0.968086 6.74 0.694753 5.85333 0.668086 4.64C0.668086 4.00667 0.754753 3.46 0.928086 3C1.10142 2.53333 1.33475 2.17667 1.62809 1.93ZM8.01887 8H6.61887V2.88L8.01887 2.76V8ZM6.48887 1.23C6.48887 1.00333 6.56887 0.81 6.72887 0.65C6.88887 0.49 7.0822 0.409999 7.30887 0.409999C7.53553 0.409999 7.72887 0.49 7.88887 0.65C8.04887 0.81 8.12887 1.00333 8.12887 1.23C8.12887 1.45 8.04887 1.64333 7.88887 1.81C7.72887 1.97667 7.53553 2.06 7.30887 2.06C7.0822 2.06 6.88887 1.98 6.72887 1.82C6.56887 1.65333 6.48887 1.45667 6.48887 1.23ZM9.5998 6.35V3.84L8.6998 3.78V2.96L9.6298 2.88V1.71L11.0298 1.59V2.87H12.4898L12.4098 3.84H11.0198V6.48C11.0198 6.67333 11.0498 6.81333 11.1098 6.9C11.1698 6.98 11.2965 7.02 11.4898 7.02C11.6831 7.02 11.8998 6.99 12.1398 6.93L12.3498 7.92C12.0231 8.06 11.6898 8.13 11.3498 8.13C11.0165 8.13 10.7631 8.11 10.5898 8.07C10.4231 8.03 10.2831 7.98333 10.1698 7.93C10.0631 7.87667 9.9698 7.8 9.8898 7.7C9.81647 7.59333 9.7598 7.5 9.7198 7.42C9.68647 7.34 9.6598 7.22667 9.6398 7.08C9.61314 6.88 9.5998 6.63667 9.5998 6.35Z" fill="#32B055"/>
<path d="M16.843 3.96V1.32H18.273V8H16.843V5.12H14.653V8H13.223V1.32H14.653V3.96H16.843ZM22.5021 7.53C21.9887 7.93 21.4421 8.13 20.8621 8.13C20.2887 8.13 19.8954 7.98333 19.6821 7.69C19.4754 7.39 19.3721 6.96667 19.3721 6.42V2.87H20.7721V6.17C20.7721 6.43667 20.8121 6.64 20.8921 6.78C20.9721 6.92 21.1687 6.99 21.4821 6.99C21.8021 6.99 22.0987 6.88667 22.3721 6.68V2.87H23.7721V8.13H22.6221L22.5021 7.53ZM26.2218 0.99V3.2C26.3618 3.08667 26.5484 2.99 26.7818 2.91C27.0218 2.82333 27.2618 2.78 27.5018 2.78C28.0484 2.78 28.4984 2.99 28.8518 3.41C29.2051 3.82333 29.3818 4.41667 29.3818 5.19C29.3818 6.14333 29.1884 6.87333 28.8018 7.38C28.4151 7.88 27.7951 8.13 26.9418 8.13C26.5751 8.13 26.1818 8.09333 25.7618 8.02C25.3418 7.95333 25.0284 7.87333 24.8218 7.78V0.99H26.2218ZM26.7418 7C27.2018 7 27.5218 6.86 27.7018 6.58C27.8818 6.3 27.9718 5.89333 27.9718 5.36C27.9718 4.82667 27.8984 4.45333 27.7518 4.24C27.6118 4.02667 27.3951 3.92 27.1018 3.92C26.8084 3.92 26.5151 4.01 26.2218 4.19V6.95C26.4018 6.98333 26.5751 7 26.7418 7Z" fill="black"/>
</svg>
