<svg width="36" height="21" viewBox="0 0 36 21" fill="none" xmlns="http://www.w3.org/2000/svg">
<path d="M4.3445 6.29329C4.43748 6.38616 4.51124 6.49645 4.56156 6.61785C4.61188 6.73924 4.63779 6.86937 4.63779 7.00079C4.63779 7.1322 4.61188 7.26233 4.56156 7.38373C4.51124 7.50513 4.43748 7.61541 4.3445 7.70829C2.84394 9.2091 2.00095 11.2445 2.00095 13.3668C2.00095 15.4891 2.84394 17.5245 4.3445 19.0253C4.43734 19.1182 4.51098 19.2285 4.5612 19.3499C4.61142 19.4712 4.63725 19.6013 4.6372 19.7326C4.63716 19.864 4.61124 19.994 4.56093 20.1154C4.51062 20.2367 4.43691 20.3469 4.344 20.4398C4.25109 20.5326 4.1408 20.6063 4.01943 20.6565C3.89807 20.7067 3.76799 20.7325 3.63665 20.7325C3.5053 20.7324 3.37524 20.7065 3.25391 20.6562C3.13258 20.6059 3.02234 20.5322 2.9295 20.4393C-0.9765 16.5333 -0.9765 10.1993 2.9295 6.29329C3.02237 6.20031 3.13266 6.12655 3.25406 6.07623C3.37546 6.0259 3.50558 6 3.637 6C3.76842 6 3.89854 6.0259 4.01994 6.07623C4.14134 6.12655 4.25163 6.20031 4.3445 6.29329V6.29329ZM17.0755 6.29329C20.9815 10.2003 20.9815 16.5333 17.0755 20.4393C16.8869 20.6214 16.6343 20.7222 16.3721 20.72C16.1099 20.7177 15.8591 20.6125 15.6737 20.4271C15.4883 20.2417 15.3831 19.9909 15.3808 19.7287C15.3785 19.4665 15.4793 19.2139 15.6615 19.0253C17.1621 17.5245 18.005 15.4891 18.005 13.3668C18.005 11.2445 17.1621 9.2091 15.6615 7.70829C15.4739 7.52078 15.3684 7.26641 15.3683 7.00114C15.3682 6.73587 15.4735 6.48143 15.661 6.29379C15.8485 6.10615 16.1029 6.00068 16.3681 6.00058C16.6334 6.00049 16.8879 6.10578 17.0755 6.29329V6.29329ZM7.3115 9.16729C7.49897 9.35481 7.60429 9.60912 7.60429 9.87429C7.60429 10.1395 7.49897 10.3938 7.3115 10.5813C6.94745 10.9453 6.65867 11.3775 6.46165 11.8531C6.26462 12.3287 6.16322 12.8385 6.16322 13.3533C6.16322 13.8681 6.26462 14.3779 6.46165 14.8535C6.65867 15.3291 6.94745 15.7613 7.3115 16.1253C7.40701 16.2175 7.48319 16.3279 7.5356 16.4499C7.58801 16.5719 7.6156 16.7031 7.61675 16.8359C7.6179 16.9687 7.5926 17.1003 7.54232 17.2232C7.49204 17.3461 7.41779 17.4578 7.3239 17.5517C7.23 17.6456 7.11835 17.7198 6.99545 17.7701C6.87256 17.8204 6.74088 17.8457 6.6081 17.8445C6.47532 17.8434 6.3441 17.8158 6.2221 17.7634C6.10009 17.711 5.98975 17.6348 5.8975 17.5393C4.78733 16.4291 4.16364 14.9233 4.16364 13.3533C4.16364 11.7832 4.78733 10.2775 5.8975 9.16729C6.08503 8.97982 6.33934 8.8745 6.6045 8.8745C6.86966 8.8745 7.12397 8.97982 7.3115 9.16729V9.16729ZM14.2705 9.16729C15.3807 10.2775 16.0044 11.7832 16.0044 13.3533C16.0044 14.9233 15.3807 16.4291 14.2705 17.5393C14.1777 17.6322 14.0674 17.7059 13.9461 17.7562C13.8248 17.8065 13.6947 17.8324 13.5634 17.8325C13.432 17.8325 13.3019 17.8067 13.1806 17.7565C13.0592 17.7063 12.9489 17.6326 12.856 17.5398C12.7631 17.4469 12.6894 17.3367 12.6391 17.2154C12.5888 17.094 12.5628 16.964 12.5628 16.8326C12.5628 16.7013 12.5886 16.5712 12.6388 16.4499C12.689 16.3285 12.7627 16.2182 12.8555 16.1253C13.2195 15.7613 13.5083 15.3291 13.7054 14.8535C13.9024 14.3779 14.0038 13.8681 14.0038 13.3533C14.0038 12.8385 13.9024 12.3287 13.7054 11.8531C13.5083 11.3775 13.2195 10.9453 12.8555 10.5813C12.668 10.3936 12.5627 10.1392 12.5628 9.87393C12.5629 9.60866 12.6684 9.35429 12.856 9.16679C13.0436 8.97928 13.2981 8.87399 13.5634 8.87408C13.8286 8.87418 14.083 8.97965 14.2705 9.16729V9.16729ZM10.0835 11.9373C10.2805 11.9373 10.4755 11.9761 10.6575 12.0515C10.8395 12.1268 11.0049 12.2373 11.1442 12.3766C11.2834 12.5159 11.3939 12.6813 11.4693 12.8633C11.5447 13.0452 11.5835 13.2403 11.5835 13.4373C11.5835 13.6343 11.5447 13.8293 11.4693 14.0113C11.3939 14.1933 11.2834 14.3587 11.1442 14.4979C11.0049 14.6372 10.8395 14.7477 10.6575 14.8231C10.4755 14.8985 10.2805 14.9373 10.0835 14.9373C9.68568 14.9373 9.30414 14.7793 9.02284 14.4979C8.74153 14.2166 8.5835 13.8351 8.5835 13.4373C8.5835 13.0395 8.74153 12.6579 9.02284 12.3766C9.30414 12.0953 9.68568 11.9373 10.0835 11.9373V11.9373Z" fill="#FF6D03"/>
<path d="M20.8135 0.875977C20.9697 0.875977 21.0951 0.92806 21.1895 1.03223C21.2839 1.13314 21.3294 1.24382 21.3262 1.36426V7.65332C21.3262 7.78353 21.2741 7.88932 21.1699 7.9707C21.069 8.04883 20.9681 8.08789 20.8672 8.08789C20.7272 8.08789 20.6051 8.04232 20.501 7.95117C20.4001 7.86003 20.3496 7.74284 20.3496 7.59961V1.36426C20.3496 1.24056 20.3936 1.12826 20.4814 1.02734C20.5726 0.926432 20.6833 0.875977 20.8135 0.875977ZM22.7812 2.15039C22.6315 2.15039 22.5094 2.10482 22.415 2.01367C22.3206 1.91927 22.2718 1.80371 22.2686 1.66699L22.2588 1.2959C22.2588 1.1722 22.3141 1.07292 22.4248 0.998047C22.5355 0.919922 22.6413 0.880859 22.7422 0.880859C22.8789 0.880859 22.9928 0.92806 23.084 1.02246C23.1784 1.11686 23.2272 1.23079 23.2305 1.36426L23.2354 1.65723C23.2354 1.78418 23.193 1.89811 23.1084 1.99902C23.0238 2.09993 22.9147 2.15039 22.7812 2.15039ZM22.2539 3.07324C22.2539 2.94954 22.306 2.84863 22.4102 2.77051C22.5143 2.69238 22.6152 2.65332 22.7129 2.65332C22.8561 2.65332 22.9782 2.69564 23.0791 2.78027C23.18 2.86491 23.2305 2.97721 23.2305 3.11719V3.12207L23.2402 7.64355C23.2402 7.77376 23.1914 7.88444 23.0938 7.97559C22.9993 8.06673 22.8854 8.1123 22.752 8.1123C22.6152 8.1123 22.4997 8.06673 22.4053 7.97559C22.3109 7.88118 22.2637 7.76888 22.2637 7.63867L22.2539 3.07324ZM28.2451 2.65332C28.3623 2.65332 28.4681 2.70052 28.5625 2.79492C28.6602 2.88932 28.709 2.99349 28.709 3.10742C28.709 3.20833 28.6927 3.29134 28.6602 3.35645L26.5996 7.81445C26.5117 8 26.362 8.09277 26.1504 8.09277C25.9323 8.09277 25.7858 7.99349 25.7109 7.79492L23.8652 3.33691C23.8392 3.28158 23.8262 3.20508 23.8262 3.10742C23.8262 3.00326 23.8701 2.90234 23.958 2.80469C24.0492 2.70378 24.1501 2.65332 24.2607 2.65332C24.5146 2.65332 24.6839 2.75423 24.7686 2.95605L26.1895 6.41309L27.7764 2.93652C27.8643 2.74772 28.0205 2.65332 28.2451 2.65332ZM31.4287 2.66797C31.8617 2.66797 32.2588 2.77539 32.6201 2.99023C32.9814 3.20508 33.2712 3.49479 33.4893 3.85938C33.7106 4.2207 33.8213 4.62272 33.8213 5.06543C33.8213 5.15658 33.8164 5.24935 33.8066 5.34375C33.7936 5.46419 33.7383 5.56673 33.6406 5.65137C33.5462 5.73275 33.4388 5.77344 33.3184 5.77344L29.9053 5.77832C29.9606 6.0127 30.0648 6.23242 30.2178 6.4375C30.3708 6.64258 30.5563 6.80859 30.7744 6.93555C30.9958 7.0625 31.2367 7.12598 31.4971 7.12598C31.777 7.12598 32.0277 7.05762 32.249 6.9209C32.4704 6.78418 32.6429 6.6263 32.7666 6.44727C32.8057 6.38542 32.8643 6.33333 32.9424 6.29102C33.0238 6.2487 33.1003 6.22754 33.1719 6.22754C33.3053 6.22754 33.4193 6.27637 33.5137 6.37402C33.6113 6.47168 33.6602 6.58724 33.6602 6.7207C33.6602 6.82487 33.6309 6.91764 33.5723 6.99902C33.3704 7.29525 33.0921 7.55241 32.7373 7.77051C32.3857 7.98535 31.9772 8.09277 31.5117 8.09277C31.1374 8.09277 30.7891 8.01953 30.4668 7.87305C30.1478 7.72656 29.8695 7.52637 29.6318 7.27246C29.3942 7.01855 29.2087 6.72721 29.0752 6.39844C28.945 6.06641 28.8799 5.71647 28.8799 5.34863C28.8799 4.99382 28.945 4.6569 29.0752 4.33789C29.2054 4.01562 29.3861 3.72917 29.6172 3.47852C29.8516 3.22786 30.1234 3.03092 30.4326 2.8877C30.7419 2.74121 31.0739 2.66797 31.4287 2.66797ZM32.8154 4.79688C32.7536 4.47786 32.5941 4.20605 32.3369 3.98145C32.0798 3.75684 31.777 3.64453 31.4287 3.64453C31.0739 3.64453 30.7598 3.76009 30.4863 3.99121C30.2161 4.22233 30.0339 4.49251 29.9395 4.80176L32.8154 4.79688Z" fill="#A093F2"/>
</svg>
