<svg width="377" height="295" viewBox="0 0 377 295" fill="none" xmlns="http://www.w3.org/2000/svg">
<path d="M225.539 61.169C227.186 60.898 228.871 60.9534 230.497 61.3321C232.122 61.7108 233.655 62.4051 235.007 63.3749C236.359 64.3446 237.503 65.5703 238.372 66.9809C239.241 68.3915 239.818 69.9589 240.07 71.592L245 103.599L228.225 108L215.933 78.1787C215.219 76.4459 214.908 74.5763 215.024 72.7085C215.139 70.8407 215.678 69.0226 216.601 67.3889C217.523 65.7553 218.806 64.3479 220.353 63.2712C221.9 62.1945 223.672 61.476 225.539 61.169Z" fill="#ECC19C"/>
<path d="M225.269 103.532C216.063 139.793 220.025 172.959 254.306 199C295.422 187.766 322.769 160.662 339.454 121.27C340.491 118.821 341.017 116.189 341 113.532C340.982 110.876 340.422 108.251 339.353 105.815C338.284 103.379 336.727 101.184 334.778 99.3605C332.829 97.5373 330.528 96.1244 328.013 95.2072V95.2072C324.234 93.83 320.121 93.6259 316.222 94.6219C312.323 95.618 308.822 97.7671 306.186 100.783L265.843 146.935L246.917 100.398L225.269 103.532Z" fill="#804500"/>
<path d="M14.6194 294C52.652 292.021 76.2781 279.23 82 253L75.8745 242L5.74296 273.294C3.97242 274.084 2.48174 275.372 1.46039 276.994C0.439036 278.616 -0.0668481 280.499 0.007086 282.403C0.0810201 284.308 0.731405 286.148 1.87557 287.689C3.01974 289.23 4.60601 290.404 6.43269 291.06L14.6194 294Z" fill="#E6E6E6"/>
<path d="M43.3685 294.184C63.0502 293.599 81.9777 293.781 99.9125 294.973C103.059 295.184 106.162 294.168 108.551 292.146C110.939 290.124 112.42 287.258 112.671 284.171L113.748 270.952L129 246.983L115.781 234C93.5667 255.73 69.204 273.983 40.2688 284.833C39.339 285.459 38.6404 286.363 38.2776 287.412C37.9149 288.46 37.9074 289.595 38.2563 290.648C38.6053 291.7 39.2919 292.614 40.2134 293.251C41.1349 293.889 42.2418 294.216 43.3685 294.184V294.184Z" fill="#E6E6E6"/>
<path d="M150.469 199.583C175.334 243.856 199.789 273.701 231.956 289.678C271.532 302.675 300.456 285.455 323 250.136L257.609 207.091L248.052 216.601L161.437 151.014C159.321 149.02 156.5 147.938 153.587 148.003C150.674 148.067 147.904 149.273 145.88 151.358L72 241.627L81.0541 256.643L150.469 199.583Z" fill="#2F2E41"/>
<path d="M128.359 252L163 200L154.849 185L109 232L128.359 252Z" fill="#2F2E41"/>
<path d="M325.5 83C306.446 83 291 67.7777 291 49C291 30.2223 306.446 15 325.5 15C344.554 15 360 30.2223 360 49C360 67.7777 344.554 83 325.5 83Z" fill="#ECC19C"/>
<path d="M316 115L355 102C349.229 93.0645 346.699 82.5015 347.816 72H316C317.809 87.2577 318.081 101.73 316 115Z" fill="#ECC19C"/>
<path d="M235 206C240.731 208.339 241.15 215.923 246.569 218.5C272.765 230.959 300.48 241.068 319.505 259C363.963 228.99 405.171 135.783 351.697 95C333.444 105.617 317.14 113.215 317.493 95L235 206Z" fill="#804500"/>
<path opacity="0.2" d="M258 165.539L276.64 159.004L313.415 187.66L329.9 128.434C331.044 124.326 332.896 126.408 335.557 129.262C338.33 126.7 341.779 124.984 345.497 124.314C349.215 123.645 353.048 124.05 356.543 125.483C360.038 126.916 363.05 129.316 365.223 132.401C367.396 135.485 368.64 139.126 368.808 142.893C370.769 185.853 357.787 222.199 325.506 250C283.282 240.978 265.363 212.509 258 175.594L259.996 174.266C259.26 171.414 258.595 168.505 258 165.539Z" fill="black"/>
<path d="M257 121.163L225.4 158L178 102.532L210.027 64L257 121.163Z" fill="#3F3D56"/>
<path d="M186.615 104L223 73.6428C220.933 68.5834 211.01 70.2698 211.01 70.2698L182.528 99.7142C181.536 100.74 180.686 101.898 180 103.157V103.157L186.615 104Z" fill="#F2F2F2"/>
<path d="M183.638 101.861L226.464 69L274 139.778L229.247 169.48C224.965 171.165 220.682 168.216 220.682 168.216L177 102.493L183.638 101.861Z" fill="#3F3D56"/>
<path d="M221.433 79.196L221.834 79.7494L194.704 99.0896L194.303 98.5362L221.433 79.196Z" fill="#6C63FF"/>
<path d="M193.943 105.775L229.549 159.179L228.976 159.555L193.37 106.151L193.943 105.775Z" fill="#6C63FF"/>
<path d="M262.118 139.745L262.526 140.294L233.708 161.328L233.301 160.779L262.118 139.745Z" fill="#6C63FF"/>
<path d="M226.577 80.1177L263.455 132.681L262.891 133.07L226.014 80.5069L226.577 80.1177Z" fill="#6C63FF"/>
<path d="M215.186 69.8033L215.473 70.1129L181.931 100.651L181.645 100.342L215.186 69.8033Z" fill="#B3B3B3"/>
<path d="M217.98 70.0651L218.261 70.3805L183.206 101.081L182.925 100.766L217.98 70.0651Z" fill="#B3B3B3"/>
<path d="M220.173 70.6769L220.445 71.0001L184.054 101.092L183.783 100.768L220.173 70.6769Z" fill="#B3B3B3"/>
<path d="M240.228 132.213C241.553 131.278 243.048 130.62 244.626 130.276C246.205 129.932 247.835 129.909 249.422 130.209C251.009 130.509 252.521 131.126 253.871 132.024C255.221 132.921 256.382 134.082 257.286 135.438L275 162.014L262.192 173L238.964 151.472C237.614 150.221 236.559 148.678 235.878 146.958C235.196 145.238 234.905 143.384 235.027 141.534C235.148 139.684 235.679 137.886 236.579 136.272C237.479 134.659 238.726 133.271 240.228 132.213V132.213Z" fill="#ECC19C"/>
<path d="M258 169.593C265.363 206.509 283.282 234.978 325.506 244C357.787 216.198 370.769 179.852 368.808 136.891C368.686 134.22 368.023 131.601 366.859 129.193C365.695 126.784 364.054 124.636 362.035 122.878C360.016 121.121 357.661 119.789 355.112 118.965C352.563 118.14 349.873 117.839 347.205 118.081V118.081C343.196 118.445 339.393 120.018 336.302 122.591C333.211 125.165 330.978 128.616 329.9 132.487L313.415 191.714L276.199 157.485L258 169.593Z" fill="#804500"/>
<path d="M287.488 30.7568L288.896 38.8714C289.093 40.0092 289.648 41.0545 290.479 41.856C291.91 43.2352 293.979 43.7242 295.875 43.1313L296.237 43.0182C297.731 42.551 298.988 41.525 299.744 40.1539L299.866 39.9327L301.851 37.2451C304.148 34.1334 306.92 31.4013 310.064 29.1482L312.509 27.3961L316.132 24.9682C319.161 22.9381 322.665 21.7294 326.302 21.4607C327.685 21.3586 329.074 21.3932 330.45 21.5642L336.282 22.289C337.297 22.4152 338.298 22.6413 339.268 22.9642L339.397 23.007C343.041 24.2186 346.09 26.7651 347.933 30.1341L349.191 32.4361C351.191 36.093 350.944 40.5674 348.555 43.9823L346.409 47.049C343.765 50.8276 345.033 56.0685 349.112 58.22L355.483 61.5801C357.145 62.4571 359.172 61.3999 359.403 59.5344C359.453 59.1362 359.591 58.7541 359.807 58.4162L363.844 52.1154C365.497 49.5349 366.551 46.617 366.929 43.5759C367.322 40.4141 366.973 37.2043 365.911 34.2006L364.929 31.4263C363.931 28.6044 362.553 25.9315 360.834 23.4811L358.798 20.5787C356.479 17.2741 353.592 14.4077 350.271 12.1132C346.541 9.53687 342.335 7.73049 337.899 6.79985L330.391 5.2248C328.097 4.74364 325.763 4.48148 323.42 4.44186L319.352 4.37309C315.062 4.30055 310.793 4.99625 306.747 6.42731L304.762 7.12966C301.759 8.19191 298.986 9.8174 296.593 11.9189L293.453 14.6757C291.96 15.9868 290.867 17.693 290.301 19.5978L288.625 25.7602C288.506 26.1992 288.334 26.6223 288.115 27.0206C287.487 28.1585 287.266 29.4764 287.488 30.7568Z" fill="#543E36"/>
<path d="M300.795 44.4642L313.223 39.5054C314.181 39.1233 315.23 39.7992 315.278 40.8293L315.669 49.2866C315.698 49.9251 315.32 50.5122 314.726 50.749L307.444 53.6542C306.851 53.8911 306.172 53.7257 305.754 53.2423L300.216 46.8386C299.541 46.0586 299.837 44.8463 300.795 44.4642Z" fill="#ECC19C" stroke="black"/>
<path d="M316 44.5L331.013 37.1858C333.698 35.8778 336.917 36.4172 339.029 38.529L339.5 39" stroke="black"/>
<path d="M330.59 82.1024L327.91 82.7724C325.977 83.2556 323.992 83.5 322 83.5C321.003 83.5 320.01 83.3868 319.038 83.1627L315.175 82.2712C314.393 82.0908 313.629 81.841 312.891 81.5249L310.74 80.6029C310.581 80.5349 310.437 80.4373 310.315 80.3153L309.712 79.7121C309.08 79.0803 309.528 78 310.421 78C310.474 78 310.526 77.9959 310.578 77.9877L319.859 76.5223C319.953 76.5075 320.048 76.5 320.143 76.5C320.948 76.5 321.658 75.9717 321.89 75.2003L322.825 72.0849C322.941 71.6959 323.019 71.2964 323.058 70.8921L323.959 61.4353C323.986 61.1476 324.066 60.8674 324.196 60.6089C325.096 58.8088 327.696 58.9038 328.462 60.7647L330 64.5L333.994 75.7572C334.844 78.1516 333.708 80.7966 331.386 81.8285C331.129 81.9426 330.863 82.0343 330.59 82.1024Z" fill="#543E36"/>
<path d="M297.45 69.1792C296.695 68.1018 297.23 66.6095 298.481 66.2031L312.942 61.506C313.848 61.2117 314.836 61.5974 315.303 62.4277L315.527 62.8253C316.501 64.5571 314.574 66.4709 312.849 65.4851V65.4851C312.314 65.1797 311.667 65.1434 311.102 65.3872L299.55 70.3697C299.077 70.574 298.538 70.5695 298.203 70.1778C298.009 69.9517 297.767 69.6322 297.45 69.1792Z" fill="#543E36"/>
<path d="M303 74.5L308 74L308.5 76L306 77C304.654 76.2979 303.999 75.7404 303 74.5Z" fill="#543E36"/>
</svg>
