<svg width="190" height="141" viewBox="0 0 190 141" fill="none" xmlns="http://www.w3.org/2000/svg">
<rect width="190" height="141" rx="4" fill="#939393"/>
<rect x="20" width="156" height="141" rx="4" fill="#5C5C5C"/>
<path d="M46.8944 63.58C47.1944 65.16 48.1144 65.95 49.6544 65.95C50.7144 65.95 51.4644 65.48 51.9044 64.54C52.3444 63.6 52.5644 62.07 52.5644 59.95C52.1244 60.57 51.5244 61.05 50.7644 61.39C50.0044 61.73 49.1544 61.9 48.2144 61.9C46.9344 61.9 45.7944 61.64 44.7944 61.12C43.7944 60.58 43.0044 59.79 42.4244 58.75C41.8644 57.69 41.5844 56.41 41.5844 54.91C41.5844 53.43 41.8844 52.14 42.4844 51.04C43.1044 49.94 43.9744 49.09 45.0944 48.49C46.2344 47.89 47.5744 47.59 49.1144 47.59C52.0744 47.59 54.1444 48.51 55.3244 50.35C56.5044 52.19 57.0944 54.9 57.0944 58.48C57.0944 61.08 56.8544 63.23 56.3744 64.93C55.9144 66.61 55.1244 67.89 54.0044 68.77C52.9044 69.65 51.3944 70.09 49.4744 70.09C47.9544 70.09 46.6544 69.79 45.5744 69.19C44.5144 68.59 43.6944 67.8 43.1144 66.82C42.5544 65.84 42.2344 64.76 42.1544 63.58H46.8944ZM49.3844 57.85C50.2244 57.85 50.8944 57.6 51.3944 57.1C51.8944 56.58 52.1444 55.88 52.1444 55C52.1444 54.04 51.8844 53.3 51.3644 52.78C50.8444 52.26 50.1444 52 49.2644 52C48.3844 52 47.6844 52.27 47.1644 52.81C46.6644 53.33 46.4144 54.05 46.4144 54.97C46.4144 55.83 46.6644 56.53 47.1644 57.07C47.6844 57.59 48.4244 57.85 49.3844 57.85ZM62.7414 70.24C61.8414 70.24 61.1014 69.98 60.5214 69.46C59.9614 68.92 59.6814 68.26 59.6814 67.48C59.6814 66.68 59.9614 66.01 60.5214 65.47C61.1014 64.93 61.8414 64.66 62.7414 64.66C63.6214 64.66 64.3414 64.93 64.9014 65.47C65.4814 66.01 65.7714 66.68 65.7714 67.48C65.7714 68.26 65.4814 68.92 64.9014 69.46C64.3414 69.98 63.6214 70.24 62.7414 70.24ZM62.7414 58.03C61.8414 58.03 61.1014 57.77 60.5214 57.25C59.9614 56.71 59.6814 56.05 59.6814 55.27C59.6814 54.47 59.9614 53.8 60.5214 53.26C61.1014 52.72 61.8414 52.45 62.7414 52.45C63.6214 52.45 64.3414 52.72 64.9014 53.26C65.4814 53.8 65.7714 54.47 65.7714 55.27C65.7714 56.05 65.4814 56.71 64.9014 57.25C64.3414 57.77 63.6214 58.03 62.7414 58.03ZM68.3568 58.75C68.3568 55.31 69.0168 52.6 70.3368 50.62C71.6768 48.64 73.8268 47.65 76.7868 47.65C79.7468 47.65 81.8868 48.64 83.2068 50.62C84.5468 52.6 85.2168 55.31 85.2168 58.75C85.2168 62.23 84.5468 64.96 83.2068 66.94C81.8868 68.92 79.7468 69.91 76.7868 69.91C73.8268 69.91 71.6768 68.92 70.3368 66.94C69.0168 64.96 68.3568 62.23 68.3568 58.75ZM80.1768 58.75C80.1768 56.73 79.9568 55.18 79.5168 54.1C79.0768 53 78.1668 52.45 76.7868 52.45C75.4068 52.45 74.4968 53 74.0568 54.1C73.6168 55.18 73.3968 56.73 73.3968 58.75C73.3968 60.11 73.4768 61.24 73.6368 62.14C73.7968 63.02 74.1168 63.74 74.5968 64.3C75.0968 64.84 75.8268 65.11 76.7868 65.11C77.7468 65.11 78.4668 64.84 78.9468 64.3C79.4468 63.74 79.7768 63.02 79.9368 62.14C80.0968 61.24 80.1768 60.11 80.1768 58.75ZM87.9271 58.75C87.9271 55.31 88.5871 52.6 89.9071 50.62C91.2471 48.64 93.3971 47.65 96.3571 47.65C99.3171 47.65 101.457 48.64 102.777 50.62C104.117 52.6 104.787 55.31 104.787 58.75C104.787 62.23 104.117 64.96 102.777 66.94C101.457 68.92 99.3171 69.91 96.3571 69.91C93.3971 69.91 91.2471 68.92 89.9071 66.94C88.5871 64.96 87.9271 62.23 87.9271 58.75ZM99.7471 58.75C99.7471 56.73 99.5271 55.18 99.0871 54.1C98.6471 53 97.7371 52.45 96.3571 52.45C94.9771 52.45 94.0671 53 93.6271 54.1C93.1871 55.18 92.9671 56.73 92.9671 58.75C92.9671 60.11 93.0471 61.24 93.2071 62.14C93.3671 63.02 93.6871 63.74 94.1671 64.3C94.6671 64.84 95.3971 65.11 96.3571 65.11C97.3171 65.11 98.0371 64.84 98.5171 64.3C99.0171 63.74 99.3471 63.02 99.5071 62.14C99.6671 61.24 99.7471 60.11 99.7471 58.75ZM110.407 70.24C109.507 70.24 108.767 69.98 108.187 69.46C107.627 68.92 107.347 68.26 107.347 67.48C107.347 66.68 107.627 66.01 108.187 65.47C108.767 64.93 109.507 64.66 110.407 64.66C111.287 64.66 112.007 64.93 112.567 65.47C113.147 66.01 113.437 66.68 113.437 67.48C113.437 68.26 113.147 68.92 112.567 69.46C112.007 69.98 111.287 70.24 110.407 70.24ZM110.407 58.03C109.507 58.03 108.767 57.77 108.187 57.25C107.627 56.71 107.347 56.05 107.347 55.27C107.347 54.47 107.627 53.8 108.187 53.26C108.767 52.72 109.507 52.45 110.407 52.45C111.287 52.45 112.007 52.72 112.567 53.26C113.147 53.8 113.437 54.47 113.437 55.27C113.437 56.05 113.147 56.71 112.567 57.25C112.007 57.77 111.287 58.03 110.407 58.03ZM116.203 54.28C116.283 52.14 116.983 50.49 118.303 49.33C119.623 48.17 121.413 47.59 123.673 47.59C125.173 47.59 126.453 47.85 127.513 48.37C128.593 48.89 129.403 49.6 129.943 50.5C130.503 51.4 130.783 52.41 130.783 53.53C130.783 54.85 130.453 55.93 129.793 56.77C129.133 57.59 128.363 58.15 127.483 58.45V58.57C128.623 58.95 129.523 59.58 130.183 60.46C130.843 61.34 131.173 62.47 131.173 63.85C131.173 65.09 130.883 66.19 130.303 67.15C129.743 68.09 128.913 68.83 127.813 69.37C126.733 69.91 125.443 70.18 123.943 70.18C121.543 70.18 119.623 69.59 118.183 68.41C116.763 67.23 116.013 65.45 115.933 63.07H120.913C120.933 63.95 121.183 64.65 121.663 65.17C122.143 65.67 122.843 65.92 123.763 65.92C124.543 65.92 125.143 65.7 125.563 65.26C126.003 64.8 126.223 64.2 126.223 63.46C126.223 62.5 125.913 61.81 125.293 61.39C124.693 60.95 123.723 60.73 122.383 60.73H121.423V56.56H122.383C123.403 56.56 124.223 56.39 124.843 56.05C125.483 55.69 125.803 55.06 125.803 54.16C125.803 53.44 125.603 52.88 125.203 52.48C124.803 52.08 124.253 51.88 123.553 51.88C122.793 51.88 122.223 52.11 121.843 52.57C121.483 53.03 121.273 53.6 121.213 54.28H116.203ZM134.007 65.89C134.687 65.35 134.997 65.1 134.937 65.14C136.897 63.52 138.437 62.19 139.557 61.15C140.697 60.11 141.657 59.02 142.437 57.88C143.217 56.74 143.607 55.63 143.607 54.55C143.607 53.73 143.417 53.09 143.037 52.63C142.657 52.17 142.087 51.94 141.327 51.94C140.567 51.94 139.967 52.23 139.527 52.81C139.107 53.37 138.897 54.17 138.897 55.21H133.947C133.987 53.51 134.347 52.09 135.027 50.95C135.727 49.81 136.637 48.97 137.757 48.43C138.897 47.89 140.157 47.62 141.537 47.62C143.917 47.62 145.707 48.23 146.907 49.45C148.127 50.67 148.737 52.26 148.737 54.22C148.737 56.36 148.007 58.35 146.547 60.19C145.087 62.01 143.227 63.79 140.967 65.53H149.067V69.7H134.007V65.89Z" fill="#C7C7C7"/>
<path d="M81.6159 86.98V94H79.9059V89.79L78.3359 94H76.9559L75.3759 89.78V94H73.6659V86.98H75.6859L77.6559 91.84L79.6059 86.98H81.6159ZM86.1656 94.07C85.5056 94.07 84.8989 93.9167 84.3456 93.61C83.7989 93.3033 83.3623 92.8767 83.0356 92.33C82.7156 91.7767 82.5556 91.1567 82.5556 90.47C82.5556 89.7833 82.7156 89.1667 83.0356 88.62C83.3623 88.0733 83.7989 87.6467 84.3456 87.34C84.8989 87.0333 85.5056 86.88 86.1656 86.88C86.8256 86.88 87.4289 87.0333 87.9756 87.34C88.5289 87.6467 88.9623 88.0733 89.2756 88.62C89.5956 89.1667 89.7556 89.7833 89.7556 90.47C89.7556 91.1567 89.5956 91.7767 89.2756 92.33C88.9556 92.8767 88.5223 93.3033 87.9756 93.61C87.4289 93.9167 86.8256 94.07 86.1656 94.07ZM86.1656 92.51C86.7256 92.51 87.1723 92.3233 87.5056 91.95C87.8456 91.5767 88.0156 91.0833 88.0156 90.47C88.0156 89.85 87.8456 89.3567 87.5056 88.99C87.1723 88.6167 86.7256 88.43 86.1656 88.43C85.5989 88.43 85.1456 88.6133 84.8056 88.98C84.4723 89.3467 84.3056 89.8433 84.3056 90.47C84.3056 91.09 84.4723 91.5867 84.8056 91.96C85.1456 92.3267 85.5989 92.51 86.1656 92.51ZM96.9869 94H95.2769L92.4169 89.67V94H90.7069V86.98H92.4169L95.2769 91.33V86.98H96.9869V94ZM100.856 86.98C101.596 86.98 102.243 87.1267 102.796 87.42C103.35 87.7133 103.776 88.1267 104.076 88.66C104.383 89.1867 104.536 89.7967 104.536 90.49C104.536 91.1767 104.383 91.7867 104.076 92.32C103.776 92.8533 103.346 93.2667 102.786 93.56C102.233 93.8533 101.59 94 100.856 94H98.2264V86.98H100.856ZM100.746 92.52C101.393 92.52 101.896 92.3433 102.256 91.99C102.616 91.6367 102.796 91.1367 102.796 90.49C102.796 89.8433 102.616 89.34 102.256 88.98C101.896 88.62 101.393 88.44 100.746 88.44H99.9364V92.52H100.746ZM109.862 92.76H107.242L106.822 94H105.032L107.572 86.98H109.552L112.092 94H110.282L109.862 92.76ZM109.422 91.44L108.552 88.87L107.692 91.44H109.422ZM118.885 86.98L116.455 91.68V94H114.745V91.68L112.315 86.98H114.255L115.615 89.92L116.965 86.98H118.885Z" fill="#C7C7C7"/>
<circle cx="140.5" cy="90.5" r="4.5" fill="#C4C4C4"/>
<circle cx="142" cy="89" r="4" fill="#5C5C5C"/>
<circle cx="141" cy="89.8182" r="0.909091" fill="#C4C4C4"/>
<path d="M140.501 88.8618C140.723 88.4783 141.277 88.4783 141.499 88.8618C141.721 89.2462 141.444 89.7273 141 89.7273C140.556 89.7273 140.279 89.2462 140.501 88.8618Z" fill="#C4C4C4"/>
<path d="M69.2661 108.29V106.7H72.0361V114H70.2561V108.29H69.2661ZM73.2659 108.76C73.2925 108.047 73.5259 107.497 73.9659 107.11C74.4059 106.723 75.0025 106.53 75.7559 106.53C76.2559 106.53 76.6825 106.617 77.0359 106.79C77.3959 106.963 77.6659 107.2 77.8459 107.5C78.0325 107.8 78.1259 108.137 78.1259 108.51C78.1259 108.95 78.0159 109.31 77.7959 109.59C77.5759 109.863 77.3192 110.05 77.0259 110.15V110.19C77.4059 110.317 77.7059 110.527 77.9259 110.82C78.1459 111.113 78.2559 111.49 78.2559 111.95C78.2559 112.363 78.1592 112.73 77.9659 113.05C77.7792 113.363 77.5025 113.61 77.1359 113.79C76.7759 113.97 76.3459 114.06 75.8459 114.06C75.0459 114.06 74.4059 113.863 73.9259 113.47C73.4525 113.077 73.2025 112.483 73.1759 111.69H74.8359C74.8425 111.983 74.9259 112.217 75.0859 112.39C75.2459 112.557 75.4792 112.64 75.7859 112.64C76.0459 112.64 76.2459 112.567 76.3859 112.42C76.5325 112.267 76.6059 112.067 76.6059 111.82C76.6059 111.5 76.5025 111.27 76.2959 111.13C76.0959 110.983 75.7725 110.91 75.3259 110.91H75.0059V109.52H75.3259C75.6659 109.52 75.9392 109.463 76.1459 109.35C76.3592 109.23 76.4659 109.02 76.4659 108.72C76.4659 108.48 76.3992 108.293 76.2659 108.16C76.1325 108.027 75.9492 107.96 75.7159 107.96C75.4625 107.96 75.2725 108.037 75.1459 108.19C75.0259 108.343 74.9559 108.533 74.9359 108.76H73.2659ZM84.1797 106.98C84.9197 106.98 85.5664 107.127 86.1197 107.42C86.673 107.713 87.0997 108.127 87.3997 108.66C87.7064 109.187 87.8597 109.797 87.8597 110.49C87.8597 111.177 87.7064 111.787 87.3997 112.32C87.0997 112.853 86.6697 113.267 86.1097 113.56C85.5564 113.853 84.913 114 84.1797 114H81.5497V106.98H84.1797ZM84.0697 112.52C84.7164 112.52 85.2197 112.343 85.5797 111.99C85.9397 111.637 86.1197 111.137 86.1197 110.49C86.1197 109.843 85.9397 109.34 85.5797 108.98C85.2197 108.62 84.7164 108.44 84.0697 108.44H83.2597V112.52H84.0697ZM94.0753 111.12C94.0753 111.28 94.0653 111.447 94.0453 111.62H90.1753C90.202 111.967 90.312 112.233 90.5053 112.42C90.7053 112.6 90.9486 112.69 91.2353 112.69C91.662 112.69 91.9586 112.51 92.1253 112.15H93.9453C93.852 112.517 93.682 112.847 93.4353 113.14C93.1953 113.433 92.892 113.663 92.5253 113.83C92.1586 113.997 91.7486 114.08 91.2953 114.08C90.7486 114.08 90.262 113.963 89.8353 113.73C89.4086 113.497 89.0753 113.163 88.8353 112.73C88.5953 112.297 88.4753 111.79 88.4753 111.21C88.4753 110.63 88.592 110.123 88.8253 109.69C89.0653 109.257 89.3986 108.923 89.8253 108.69C90.252 108.457 90.742 108.34 91.2953 108.34C91.8353 108.34 92.3153 108.453 92.7353 108.68C93.1553 108.907 93.482 109.23 93.7153 109.65C93.9553 110.07 94.0753 110.56 94.0753 111.12ZM92.3253 110.67C92.3253 110.377 92.2253 110.143 92.0253 109.97C91.8253 109.797 91.5753 109.71 91.2753 109.71C90.9886 109.71 90.7453 109.793 90.5453 109.96C90.352 110.127 90.232 110.363 90.1853 110.67H92.3253ZM94.6374 111.21C94.6374 110.63 94.7541 110.123 94.9874 109.69C95.2274 109.257 95.5574 108.923 95.9774 108.69C96.4041 108.457 96.8908 108.34 97.4374 108.34C98.1374 108.34 98.7208 108.523 99.1874 108.89C99.6608 109.257 99.9708 109.773 100.117 110.44H98.2974C98.1441 110.013 97.8474 109.8 97.4074 109.8C97.0941 109.8 96.8441 109.923 96.6574 110.17C96.4708 110.41 96.3774 110.757 96.3774 111.21C96.3774 111.663 96.4708 112.013 96.6574 112.26C96.8441 112.5 97.0941 112.62 97.4074 112.62C97.8474 112.62 98.1441 112.407 98.2974 111.98H100.117C99.9708 112.633 99.6608 113.147 99.1874 113.52C98.7141 113.893 98.1308 114.08 97.4374 114.08C96.8908 114.08 96.4041 113.963 95.9774 113.73C95.5574 113.497 95.2274 113.163 94.9874 112.73C94.7541 112.297 94.6374 111.79 94.6374 111.21ZM102.921 112.63C103.148 112.45 103.251 112.367 103.231 112.38C103.885 111.84 104.398 111.397 104.771 111.05C105.151 110.703 105.471 110.34 105.731 109.96C105.991 109.58 106.121 109.21 106.121 108.85C106.121 108.577 106.058 108.363 105.931 108.21C105.805 108.057 105.615 107.98 105.361 107.98C105.108 107.98 104.908 108.077 104.761 108.27C104.621 108.457 104.551 108.723 104.551 109.07H102.901C102.915 108.503 103.035 108.03 103.261 107.65C103.495 107.27 103.798 106.99 104.171 106.81C104.551 106.63 104.971 106.54 105.431 106.54C106.225 106.54 106.821 106.743 107.221 107.15C107.628 107.557 107.831 108.087 107.831 108.74C107.831 109.453 107.588 110.117 107.101 110.73C106.615 111.337 105.995 111.93 105.241 112.51H107.941V113.9H102.921V112.63ZM108.694 110.25C108.694 109.103 108.914 108.2 109.354 107.54C109.801 106.88 110.517 106.55 111.504 106.55C112.491 106.55 113.204 106.88 113.644 107.54C114.091 108.2 114.314 109.103 114.314 110.25C114.314 111.41 114.091 112.32 113.644 112.98C113.204 113.64 112.491 113.97 111.504 113.97C110.517 113.97 109.801 113.64 109.354 112.98C108.914 112.32 108.694 111.41 108.694 110.25ZM112.634 110.25C112.634 109.577 112.561 109.06 112.414 108.7C112.267 108.333 111.964 108.15 111.504 108.15C111.044 108.15 110.741 108.333 110.594 108.7C110.447 109.06 110.374 109.577 110.374 110.25C110.374 110.703 110.401 111.08 110.454 111.38C110.507 111.673 110.614 111.913 110.774 112.1C110.941 112.28 111.184 112.37 111.504 112.37C111.824 112.37 112.064 112.28 112.224 112.1C112.391 111.913 112.501 111.673 112.554 111.38C112.607 111.08 112.634 110.703 112.634 110.25ZM115.158 112.63C115.384 112.45 115.488 112.367 115.468 112.38C116.121 111.84 116.634 111.397 117.008 111.05C117.388 110.703 117.708 110.34 117.968 109.96C118.228 109.58 118.358 109.21 118.358 108.85C118.358 108.577 118.294 108.363 118.168 108.21C118.041 108.057 117.851 107.98 117.598 107.98C117.344 107.98 117.144 108.077 116.998 108.27C116.858 108.457 116.788 108.723 116.788 109.07H115.138C115.151 108.503 115.271 108.03 115.498 107.65C115.731 107.27 116.034 106.99 116.408 106.81C116.788 106.63 117.208 106.54 117.668 106.54C118.461 106.54 119.058 106.743 119.458 107.15C119.864 107.557 120.068 108.087 120.068 108.74C120.068 109.453 119.824 110.117 119.338 110.73C118.851 111.337 118.231 111.93 117.478 112.51H120.178V113.9H115.158V112.63ZM120.93 110.25C120.93 109.103 121.15 108.2 121.59 107.54C122.037 106.88 122.754 106.55 123.74 106.55C124.727 106.55 125.44 106.88 125.88 107.54C126.327 108.2 126.55 109.103 126.55 110.25C126.55 111.41 126.327 112.32 125.88 112.98C125.44 113.64 124.727 113.97 123.74 113.97C122.754 113.97 122.037 113.64 121.59 112.98C121.15 112.32 120.93 111.41 120.93 110.25ZM124.87 110.25C124.87 109.577 124.797 109.06 124.65 108.7C124.504 108.333 124.2 108.15 123.74 108.15C123.28 108.15 122.977 108.333 122.83 108.7C122.684 109.06 122.61 109.577 122.61 110.25C122.61 110.703 122.637 111.08 122.69 111.38C122.744 111.673 122.85 111.913 123.01 112.1C123.177 112.28 123.42 112.37 123.74 112.37C124.06 112.37 124.3 112.28 124.46 112.1C124.627 111.913 124.737 111.673 124.79 111.38C124.844 111.08 124.87 110.703 124.87 110.25Z" fill="#8E8E8E"/>
</svg>
