<svg width="229" height="955" viewBox="0 0 229 955" fill="none" xmlns="http://www.w3.org/2000/svg">
<g id="Group 34">
<rect id="frame" x="-5" width="234" height="956" fill="#C4CACE"/>
<rect id="1st_compartment" x="-5" y="36" width="208" height="252" fill="#ECECEC"/>
<rect id="2nd_compartment" x="-4" y="349" width="208" height="252" fill="#ECECEC"/>
<rect id="3rd_compartment" x="-6" y="668" width="208" height="252" fill="#ECECEC"/>
<g id="javascript_book">
<path id="Rectangle 22" d="M168.806 124.632C174.147 126.582 178.877 127.654 183.613 127.709C188.361 127.764 192.966 126.795 198.059 124.86C199.343 124.372 200.5 125.332 200.5 126.348V284C200.5 284.828 199.828 285.5 199 285.5H168C167.172 285.5 166.5 284.828 166.5 284V126.106C166.5 125.087 167.608 124.195 168.806 124.632Z" fill="#43B0FF" stroke="#37A6F7" stroke-width="5" stroke-linecap="round" stroke-linejoin="round"/>
<path id="JAVASCRIPT" d="M178.53 243.318H185.88C186.9 243.318 187.695 243.613 188.265 244.203C188.825 244.793 189.105 245.583 189.105 246.573C189.105 247.573 188.815 248.383 188.235 249.003C187.655 249.613 186.845 249.918 185.805 249.918V247.818C186.255 247.808 186.605 247.703 186.855 247.503C187.105 247.293 187.23 246.993 187.23 246.603C187.23 246.223 187.11 245.933 186.87 245.733C186.63 245.533 186.3 245.433 185.88 245.433H178.53V243.318ZM187.005 234.448V238.618L189 239.308V241.513L178.515 237.748V235.303L189 231.538V233.758L187.005 234.448ZM185.325 235.018L180.945 236.533L185.325 238.048V235.018ZM178.53 220.726L189 224.566V227.116L178.53 230.956V228.706L186.855 225.826L178.53 222.961V220.726ZM187.005 213.046V217.216L189 217.906V220.111L178.515 216.346V213.901L189 210.136V212.356L187.005 213.046ZM185.325 213.616L180.945 215.131L185.325 216.646V213.616ZM189.105 205.114C189.105 205.844 188.98 206.504 188.73 207.094C188.48 207.674 188.12 208.134 187.65 208.474C187.18 208.814 186.625 208.989 185.985 208.999V206.749C186.415 206.719 186.755 206.569 187.005 206.299C187.255 206.019 187.38 205.639 187.38 205.159C187.38 204.669 187.265 204.284 187.035 204.004C186.795 203.724 186.485 203.584 186.105 203.584C185.795 203.584 185.54 203.679 185.34 203.869C185.14 204.059 184.985 204.299 184.875 204.589C184.755 204.869 184.625 205.259 184.485 205.759C184.285 206.439 184.09 206.994 183.9 207.424C183.7 207.844 183.405 208.209 183.015 208.519C182.615 208.819 182.085 208.969 181.425 208.969C180.805 208.969 180.265 208.814 179.805 208.504C179.345 208.194 178.995 207.759 178.755 207.199C178.505 206.639 178.38 205.999 178.38 205.279C178.38 204.199 178.645 203.324 179.175 202.654C179.695 201.974 180.425 201.599 181.365 201.529V203.839C181.005 203.859 180.71 204.014 180.48 204.304C180.24 204.584 180.12 204.959 180.12 205.429C180.12 205.839 180.225 206.169 180.435 206.419C180.645 206.659 180.95 206.779 181.35 206.779C181.63 206.779 181.865 206.689 182.055 206.509C182.235 206.319 182.385 206.089 182.505 205.819C182.615 205.539 182.745 205.149 182.895 204.649C183.095 203.969 183.295 203.414 183.495 202.984C183.695 202.554 183.995 202.184 184.395 201.874C184.795 201.564 185.32 201.409 185.97 201.409C186.53 201.409 187.05 201.554 187.53 201.844C188.01 202.134 188.395 202.559 188.685 203.119C188.965 203.679 189.105 204.344 189.105 205.114ZM183.75 200.099C182.72 200.099 181.8 199.869 180.99 199.409C180.17 198.939 179.535 198.304 179.085 197.504C178.625 196.694 178.395 195.789 178.395 194.789C178.395 193.619 178.695 192.594 179.295 191.714C179.895 190.834 180.725 190.219 181.785 189.869V192.284C181.285 192.524 180.91 192.864 180.66 193.304C180.41 193.734 180.285 194.234 180.285 194.804C180.285 195.414 180.43 195.959 180.72 196.439C181 196.909 181.4 197.279 181.92 197.549C182.44 197.809 183.05 197.939 183.75 197.939C184.44 197.939 185.05 197.809 185.58 197.549C186.1 197.279 186.505 196.909 186.795 196.439C187.075 195.959 187.215 195.414 187.215 194.804C187.215 194.234 187.09 193.734 186.84 193.304C186.58 192.864 186.2 192.524 185.7 192.284V189.869C186.77 190.219 187.605 190.834 188.205 191.714C188.795 192.584 189.09 193.609 189.09 194.789C189.09 195.789 188.865 196.694 188.415 197.504C187.955 198.304 187.32 198.939 186.51 199.409C185.7 199.869 184.78 200.099 183.75 200.099ZM189 182.675L184.92 184.985V185.975H189V188.075H178.53V184.145C178.53 183.335 178.675 182.645 178.965 182.075C179.245 181.505 179.63 181.08 180.12 180.8C180.6 180.51 181.14 180.365 181.74 180.365C182.43 180.365 183.055 180.565 183.615 180.965C184.165 181.365 184.545 181.96 184.755 182.75L189 180.245V182.675ZM183.345 185.975V184.22C183.345 183.65 183.21 183.225 182.94 182.945C182.66 182.665 182.275 182.525 181.785 182.525C181.305 182.525 180.935 182.665 180.675 182.945C180.405 183.225 180.27 183.65 180.27 184.22V185.975H183.345ZM178.53 176.365H189V178.465H178.53V176.365ZM181.77 166.656C182.33 166.656 182.855 166.791 183.345 167.061C183.835 167.321 184.23 167.736 184.53 168.306C184.83 168.866 184.98 169.576 184.98 170.436V172.191H189V174.291H178.53V170.436C178.53 169.626 178.67 168.936 178.95 168.366C179.23 167.796 179.615 167.371 180.105 167.091C180.595 166.801 181.15 166.656 181.77 166.656ZM183.285 170.526C183.285 169.946 183.155 169.516 182.895 169.236C182.625 168.956 182.25 168.816 181.77 168.816C180.75 168.816 180.24 169.386 180.24 170.526V172.191H183.285V170.526ZM178.53 158.04H180.225V160.83H189V162.93H180.225V165.72H178.53V158.04Z" fill="#D3EAFF"/>
</g>
<g id="html_book">
<path id="Rectangle 23" d="M129.796 177.992C140.938 180.943 148.943 181.165 159.608 178.465C160.754 178.174 161.735 179.039 161.724 180.009L160.543 284.407C160.534 285.236 159.854 285.899 159.026 285.89L128.028 285.539C127.2 285.53 126.536 284.851 126.545 284.022L127.728 179.474C127.739 178.512 128.708 177.704 129.796 177.992Z" fill="#05C9A5" stroke="#A1FFBB" stroke-width="5" stroke-linecap="round" stroke-linejoin="round"/>
<path id="HTML" d="M140.624 247.908H149V249.588H145.436V253.176H149V254.856H140.624V253.176H144.068V249.588H140.624V247.908ZM140.624 237.374H141.98V239.607H149V241.287H141.98V243.519H140.624V237.374ZM140.624 223.837H149V225.517H143.552L149 227.761V229.033L143.552 231.289H149V232.969H140.624V231.061L146.852 228.397L140.624 225.733V223.837ZM147.668 217.316V214.556H149V218.996H140.624V217.316H147.668Z" fill="#D3EAFF"/>
</g>
<g id="large_book_bottom">
<path id="Rectangle 24" d="M10.7701 277.519C14.2363 272.244 16.029 267.483 15.9359 262.825C15.8422 258.131 13.8433 253.962 10.5961 249.868C10.0853 249.224 9.99937 248.345 10.3103 247.592C10.6091 246.867 11.1522 246.5 11.8001 246.5L106.495 246.5C107.111 246.5 107.63 246.868 107.83 247.382C110.299 253.692 111.485 258.657 111.5 263.521C111.515 268.38 110.363 273.339 107.847 279.634C107.646 280.137 107.133 280.5 106.522 280.5L12.0853 280.5C11.4715 280.5 10.958 280.165 10.6575 279.546C10.3467 278.906 10.3641 278.137 10.7701 277.519Z" fill="white" stroke="#A5B3FF" stroke-width="5" stroke-linecap="round" stroke-linejoin="round"/>
<path id="Rectangle 25" d="M7.5 249H104V278H8C11.8909 266.131 11.4193 259.794 7.5 249Z" fill="white"/>
<path id="Vector 1" d="M10 254H106.5" stroke="#EFEFEF"/>
<path id="Vector 2" d="M12 260H108.5" stroke="#EFEFEF"/>
<path id="Vector 3" d="M10 269H106.5" stroke="#EFEFEF"/>
<path id="Vector 4" d="M10 276H106.5" stroke="#EFEFEF"/>
</g>
<g id="small_book_top">
<path id="Rectangle 24_2" d="M39.154 237.203C40.8326 234.139 41.7059 231.231 41.6525 228.346C41.5988 225.443 40.6119 222.815 38.9953 220.314C38.4911 219.534 38.4409 218.509 38.789 217.685C39.1192 216.903 39.6676 216.553 40.3001 216.553L108.243 216.553C108.866 216.553 109.372 216.924 109.559 217.417C111.213 221.766 111.99 225.203 112 228.548C112.01 231.887 111.255 235.319 109.575 239.654C109.388 240.135 108.889 240.5 108.27 240.5L40.5853 240.5C39.9841 240.5 39.4582 240.175 39.1245 239.505C38.7755 238.804 38.7604 237.922 39.154 237.203Z" fill="white" stroke="#E2A5FF" stroke-width="5" stroke-linecap="round" stroke-linejoin="round"/>
<path id="Rectangle 25_2" d="M36 219H107V238H36.3679C38.4534 229.773 38.1302 225.635 36 219Z" fill="white"/>
<path id="Vector 1_2" d="M37.3088 221.476L105 221.02" stroke="#EFEFEF"/>
<path id="Vector 2_2" d="M38.7935 225.929L108 225.999" stroke="#EFEFEF"/>
<path id="Vector 3_2" d="M37.3088 232.609H108.933" stroke="#EFEFEF"/>
<path id="Vector 4_2" d="M37 237L105.691 237.19" stroke="#EFEFEF"/>
</g>
<g id="pen">
<rect id="Rectangle 31" x="81" y="153" width="2" height="3" rx="1" fill="#343434"/>
<rect id="Rectangle 27" x="80" y="155" width="4" height="31" rx="1" fill="#68D2FF"/>
<rect id="Rectangle 28" x="84" y="156" width="1" height="8" rx="0.5" fill="#0077AA"/>
<rect id="Rectangle 29" x="85" y="159" width="1" height="8" rx="0.5" fill="#0077AA"/>
</g>
<g id="ruler">
<rect id="Rectangle 30" x="55.6454" y="155.784" width="7.77616" height="53" transform="rotate(-20.8822 55.6454 155.784)" fill="white" fill-opacity="0.57" stroke="black"/>
<path id="Vector 5" d="M64 156L62.5 156.5" stroke="black"/>
<path id="Vector 6" d="M65.5 160L64 160.5" stroke="black"/>
<path id="Vector 7" d="M67.5 165L66 165.5" stroke="black"/>
<path id="Vector 8" d="M69.5 170L68 170.5" stroke="black"/>
<path id="Vector 9" d="M71.5 175L70 175.5" stroke="black"/>
<path id="1" d="M60.9957 156.934L60.9109 156.691L61.3661 156.532L61.8454 157.909L61.5735 158.004L61.1789 156.871L60.9957 156.934Z" fill="black"/>
<path id="2" d="M62.6668 161.88C62.7526 161.737 62.8198 161.62 62.8683 161.528C62.9164 161.435 62.9517 161.344 62.9741 161.254C62.9965 161.164 62.9955 161.084 62.9709 161.014C62.9486 160.949 62.9159 160.904 62.873 160.878C62.83 160.852 62.7771 160.85 62.7141 160.872C62.6512 160.894 62.6102 160.932 62.5911 160.987C62.5715 161.04 62.5738 161.104 62.598 161.177L62.3411 161.267C62.2936 161.114 62.2984 160.984 62.3556 160.876C62.414 160.768 62.5087 160.692 62.6397 160.646C62.7832 160.596 62.9068 160.596 63.0103 160.646C63.1134 160.695 63.1867 160.782 63.2301 160.906C63.2643 161.005 63.2705 161.108 63.2487 161.215C63.227 161.323 63.1937 161.422 63.1489 161.513C63.1037 161.602 63.0426 161.712 62.9655 161.844L63.5227 161.65L63.5989 161.869L62.6659 162.193L62.5975 161.997L62.6668 161.88Z" fill="black"/>
<path id="3" d="M64.3152 166.2C64.2776 166.071 64.288 165.959 64.3461 165.863C64.4051 165.764 64.502 165.692 64.6367 165.645C64.7287 165.613 64.8131 165.602 64.8899 165.612C64.9664 165.621 65.0306 165.647 65.0826 165.691C65.1355 165.733 65.174 165.789 65.1981 165.858C65.2257 165.938 65.2284 166.012 65.2061 166.082C65.1846 166.15 65.1489 166.204 65.0988 166.242L65.1014 166.25C65.1823 166.247 65.253 166.268 65.3135 166.312C65.3752 166.355 65.4219 166.422 65.4534 166.513C65.4797 166.588 65.4855 166.662 65.4709 166.733C65.4575 166.804 65.4227 166.869 65.3665 166.926C65.3112 166.982 65.2363 167.027 65.1419 167.06C64.9996 167.109 64.8712 167.114 64.7569 167.073C64.6425 167.032 64.5584 166.943 64.5047 166.805L64.7616 166.715C64.7856 166.776 64.8237 166.819 64.8759 166.843C64.9289 166.865 64.99 166.865 65.0593 166.841C65.1235 166.818 65.1665 166.783 65.1882 166.736C65.2107 166.688 65.2121 166.635 65.1924 166.578C65.1661 166.503 65.1233 166.457 65.0641 166.441C65.0049 166.425 64.9249 166.434 64.8241 166.469L64.7693 166.488L64.6937 166.271L64.7485 166.252C64.9273 166.19 64.9959 166.099 64.9543 165.979C64.9354 165.925 64.9043 165.889 64.8611 165.87C64.8191 165.85 64.7679 165.851 64.7074 165.872C64.6482 165.893 64.608 165.925 64.5866 165.969C64.5661 166.012 64.5619 166.059 64.5739 166.109L64.3152 166.2Z" fill="black"/>
<path id="4" d="M66.5008 170.971L66.4284 170.764L66.7384 169.665L67.0462 169.557L67.3461 170.419L67.5123 170.361L67.5925 170.591L67.4263 170.649L67.5197 170.917L67.2552 171.009L67.1619 170.741L66.5008 170.971ZM66.8974 169.927L66.7114 170.64L67.0986 170.505L66.8974 169.927Z" fill="black"/>
</g>
<path id="pencil_case" d="M60.7592 174.265C65.7295 176.248 70.0743 177.309 74.4738 177.333C78.8767 177.358 83.2257 176.342 88.2059 174.326C89.3429 173.866 90.5 174.701 90.5 175.763V211C90.5 211.828 89.8284 212.5 89 212.5H60C59.1716 212.5 58.5 211.828 58.5 211V175.699C58.5 174.64 59.6401 173.819 60.7592 174.265Z" fill="#FF9F9F" stroke="#FFC8C8" stroke-width="3" stroke-linecap="square" stroke-linejoin="round"/>
<g id="left_speaker">
<rect id="Rectangle 36" x="12" y="478" width="50" height="113" rx="2" fill="#C2C2C2"/>
<path id="Rectangle 37" d="M22.4902 591H51.5098L57 604H17L22.4902 591Z" fill="#C2C2C2"/>
<circle id="Ellipse 1" cx="37.5" cy="558.5" r="15.5" fill="#646464"/>
<circle id="Ellipse 2" cx="37.5" cy="511.5" r="15.5" fill="#646464"/>
</g>
<g id="right_speaker">
<rect id="Rectangle 32" x="136" y="478" width="50" height="113" rx="2" fill="#C2C2C2"/>
<path id="Rectangle 35" d="M146.49 591H175.51L181 604H141L146.49 591Z" fill="#C2C2C2"/>
<circle id="Ellipse 5" cx="160.5" cy="558.5" r="15.5" fill="#646464"/>
<circle id="Ellipse 6" cx="160.5" cy="511.5" r="15.5" fill="#646464"/>
</g>
<g id="middle_speaker">
<rect id="Rectangle 38" x="71" y="523" width="57" height="75" rx="2" fill="#C2C2C2"/>
<path id="Rectangle 39" d="M82 598H117L120 604H79L82 598Z" fill="#C2C2C2"/>
<circle id="Ellipse 3" cx="103.5" cy="560.5" r="19.5" fill="#646464"/>
<circle id="Ellipse 4" cx="79.5" cy="534.5" r="5.5" fill="#646464"/>
</g>
<g id="roller_skate_right">
<circle id="Ellipse 7" cx="81.3953" cy="873.922" r="13" transform="rotate(24.1934 81.3953 873.922)" fill="#950009"/>
<circle id="Ellipse 8" cx="108.76" cy="886.216" r="13" transform="rotate(24.1934 108.76 886.216)" fill="#950009"/>
<circle id="Ellipse 9" cx="136.126" cy="898.511" r="13" transform="rotate(24.1934 136.126 898.511)" fill="#950009"/>
<circle id="Ellipse 10" cx="163.491" cy="910.805" r="13" transform="rotate(24.1934 163.491 910.805)" fill="#950009"/>
<rect id="Rectangle 42" width="28.6208" height="4.13137" rx="2.06569" transform="matrix(0.633157 0.774023 -0.773237 0.634117 165.26 869.874)" fill="#FF949B"/>
<rect id="Rectangle 43" width="32.438" height="4.13137" rx="2.06569" transform="matrix(0.633157 0.774023 -0.773237 0.634117 170.804 860.503)" fill="#FF949B"/>
<rect id="Rectangle 44" width="34.6455" height="4.13137" rx="2.06569" transform="matrix(0.633157 0.774023 -0.773237 0.634117 177.255 853.405)" fill="#FF949B"/>
<rect id="Rectangle 45" width="34.6455" height="4.46581" rx="2.2329" transform="matrix(-0.689488 0.724297 -0.725153 -0.688588 178.979 856.186)" fill="#FF949B"/>
<rect id="Rectangle 46" width="34.6455" height="4.46581" rx="2.2329" transform="matrix(-0.964831 -0.262872 0.261674 -0.965156 72.427 887.418)" fill="#FF949B"/>
<g id="Group 5">
<path id="Vector 10" d="M201.315 877.858L191.047 900.712C190.821 901.216 190.229 901.441 189.725 901.214L167.272 891.127C166.463 890.763 166.492 889.605 167.318 889.283L200.04 876.516C200.874 876.191 201.682 877.041 201.315 877.858Z" fill="#FF4E59"/>
<rect id="Rectangle 40" x="71.5732" y="842.102" width="133" height="12" rx="6" transform="rotate(24.1934 71.5732 842.102)" fill="#FF4E59"/>
<path id="Rectangle 41" d="M92.6066 829.626L150.919 855.824C113.45 862.094 118.171 866.463 142.402 874.779L84.0904 848.581C63.5773 850.319 63.4352 846.938 92.6066 829.626Z" fill="#FF4E59"/>
</g>
</g>
<g id="roller_skate_left">
<circle id="Ellipse 7_2" cx="11.5031" cy="809.993" r="13" transform="rotate(85.9995 11.5031 809.993)" fill="#950009"/>
<circle id="Ellipse 8_2" cx="13.5961" cy="839.92" r="13" transform="rotate(85.9995 13.5961 839.92)" fill="#950009"/>
<circle id="Ellipse 9_2" cx="15.6889" cy="869.847" r="13" transform="rotate(85.9995 15.6889 869.847)" fill="#950009"/>
<circle id="Ellipse 10_2" cx="17.7819" cy="899.773" r="13" transform="rotate(85.9995 17.7819 899.773)" fill="#950009"/>
<rect id="Rectangle 42_2" width="28.6208" height="4.13137" rx="2.06569" transform="matrix(-0.383049 0.923728 -0.924203 -0.381902 54.6929 881.995)" fill="#FF949B"/>
<rect id="Rectangle 43_2" width="32.438" height="4.13137" rx="2.06569" transform="matrix(-0.383049 0.923728 -0.924203 -0.381902 65.5713 882.453)" fill="#FF949B"/>
<rect id="Rectangle 44_2" width="34.6455" height="4.13137" rx="2.06569" transform="matrix(-0.383049 0.923728 -0.924203 -0.381902 74.8755 884.786)" fill="#FF949B"/>
<g id="Group 5_2">
<path id="Vector 10_2" d="M64.6914 917.544L39.6972 919.292C39.1463 919.331 38.6684 918.915 38.6299 918.364L36.9125 893.809C36.8507 892.924 37.8852 892.403 38.5595 892.978L65.271 915.786C65.9517 916.367 65.5844 917.482 64.6914 917.544Z" fill="#FF4E59"/>
<rect id="Rectangle 40_2" x="34.9075" y="786.302" width="133" height="12" rx="6" transform="rotate(85.9995 34.9075 786.302)" fill="#FF4E59"/>
<path id="Rectangle 41_2" d="M55.8405 798.946L60.3003 862.717C37.0719 832.656 35.4519 838.881 39.5705 864.167L35.1106 800.396C23.887 783.138 26.7996 781.415 55.8405 798.946Z" fill="#FF4E59"/>
</g>
</g>
</g>
</svg>
