<svg width="375" height="777" viewBox="0 0 375 777" fill="none" xmlns="http://www.w3.org/2000/svg">
<g id="man_holding_racket">
<g id="badminton_racket">
<g id="Group 27">
<path id="Vector 18" d="M282.559 752.649L287.044 614.463" stroke="#FFFEFF"/>
<path id="Vector 19" d="M295.159 755.305L299.736 614.31" stroke="#FFFEFF"/>
<path id="Vector 20" d="M289 753.982L293.522 614.672" stroke="#FFFEFF"/>
<path id="Vector 21" d="M300.773 756.049L305.404 613.368" stroke="#FFFEFF"/>
<path id="Vector 22" d="M306.424 755.669L311.019 614.112" stroke="#FFFEFF"/>
<path id="Vector 23" d="M313.201 755.325L317.741 615.454" stroke="#FFFEFF"/>
<path id="Vector 24" d="M319.997 754.42L324.445 617.357" stroke="#FFFEFF"/>
<path id="Vector 30" d="M282.554 752.649L287.002 615.586" stroke="#FFFEFF"/>
<path id="Vector 25" d="M326.865 751.268L331.113 620.384" stroke="#FFFEFF"/>
<path id="Vector 31" d="M275.886 749.636L280.134 618.752" stroke="#FFFEFF"/>
<path id="Vector 26" d="M333.77 746.992L337.726 625.096" stroke="#FFFEFF"/>
<path id="Vector 32" d="M269.524 746.043L273.553 621.9" stroke="#FFFEFF"/>
<path id="Vector 27" d="M340.674 742.716L344.339 629.807" stroke="#FFFEFF"/>
<path id="Vector 33" d="M262.659 740.24L266.324 627.331" stroke="#FFFEFF"/>
<path id="Vector 28" d="M347.67 735.632L350.879 636.766" stroke="#FFFEFF"/>
<path id="Vector 34" d="M256.119 733.295L259.126 632.117" stroke="#FFFEFF"/>
<path id="Vector 29" d="M354.433 726.854L357.022 647.086" stroke="#FFFEFF"/>
<path id="Vector 35" d="M249.677 723.472L252.282 643.211" stroke="#FFFEFF"/>
<path id="Vector 36" d="M274.502 749.015L327.446 750.724" stroke="#FFFEFF"/>
<path id="Vector 37" d="M264.564 742.509L336.64 745.421" stroke="#FFFEFF"/>
<path id="Vector 38" d="M258.559 736.41L344.745 738.91" stroke="#FFFEFF"/>
<path id="Vector 39" d="M252.574 729.75L350.577 732.914" stroke="#FFFEFF"/>
<path id="Vector 40" d="M249.395 723.462L354.157 726.844" stroke="#FFFEFF"/>
<path id="Vector 41" d="M245.653 717.156L357.174 720.756" stroke="#FFFEFF"/>
<path id="Vector 42" d="M244.727 710.94L360.754 714.686" stroke="#FFFEFF"/>
<path id="Vector 43" d="M242.683 704.408L362.091 708.263" stroke="#FFFEFF"/>
<path id="Vector 44" d="M242.875 698.51L362.283 702.365" stroke="#FFFEFF"/>
<path id="Vector 45" d="M243.076 692.331L362.484 696.186" stroke="#FFFEFF"/>
<path id="Vector 46" d="M243.276 686.152L362.684 690.007" stroke="#FFFEFF"/>
<path id="Vector 47" d="M243.477 679.973L362.885 683.827" stroke="#FFFEFF"/>
<path id="Vector 48" d="M243.677 673.793L363.085 677.648" stroke="#FFFEFF"/>
<path id="Vector 49" d="M243.878 667.614L363.286 671.469" stroke="#FFFEFF"/>
<path id="Vector 50" d="M244.079 661.435L363.486 665.29" stroke="#FFFEFF"/>
<path id="Vector 51" d="M244.833 655.552L362.551 659.352" stroke="#FFFEFF"/>
<path id="Vector 52" d="M247.859 649.186L361.07 652.841" stroke="#FFFEFF"/>
<path id="Vector 53" d="M250.876 643.097L358.455 646.571" stroke="#FFFEFF"/>
<path id="Vector 54" d="M255.601 636.502L353.604 639.666" stroke="#FFFEFF"/>
<path id="Vector 55" d="M259.726 631.012L350.408 633.926" stroke="#FFFEFF"/>
<path id="Vector 56" d="M269.538 624.019L341.632 626.35" stroke="#FFFEFF"/>
</g>
<rect id="Rectangle 86" x="3.61172" y="-3.38522" width="116.977" height="138.566" rx="58.4885" transform="matrix(0.999479 0.0322673 0.0324399 -0.999474 238.874 748.849)" stroke="#FF8080" stroke-width="7"/>
<rect id="Rectangle 87" width="11.2706" height="156.807" transform="matrix(0.999479 0.0322673 0.0324399 -0.999474 299.754 613.748)" fill="#FF8080"/>
<rect id="Rectangle 88" width="24.2319" height="79.8086" rx="9" transform="matrix(0.999479 0.0322673 0.0324399 -0.999474 298.627 457.385)" fill="#FF3131"/>
</g>
<g id="face">
<path id="Vector" d="M126.223 101.811C103.867 106.863 81.6974 93.0537 76.7062 70.9669C71.715 48.8802 85.7921 26.8799 108.148 21.8278C130.504 16.7758 152.674 30.5851 157.665 52.6718C162.656 74.7586 148.579 96.7589 126.223 101.811Z" fill="#ECC19C"/>
<path id="Vector_2" d="M154.247 128.285L80.5852 124.427C94.7183 114.93 98.3332 103.119 91.8251 89.0798L137.559 78.7449C136.703 102.303 140.778 120.448 154.247 128.285Z" fill="#ECC19C"/>
<path id="Vector_3" d="M96.6496 50.0833C96.6231 49.9659 96.6917 49.8418 96.8085 49.8006C97.7895 49.4196 102.221 47.7723 107.137 46.6615C112.716 45.4008 120.303 45.484 121.558 45.2003L122.672 44.9486C123.258 44.8162 125.049 44.0202 127.358 43.0852C130.013 42.0066 133.344 40.7392 136.32 40.0666C139.917 39.2539 143.405 38.8138 145.426 38.6033C146.164 38.5238 146.71 38.4794 146.994 38.4589C147.118 38.4458 147.233 38.5283 147.259 38.6457L147.978 41.5635C148.001 41.6668 147.958 41.7711 147.869 41.8348L147.557 42.0286C147.099 42.3282 149.137 51.1524 146.942 53.9679C145.635 55.6329 144.379 56.6994 138.377 58.0556C134.9 58.8414 132.507 58.4185 129.814 56.1492C127.875 54.5218 125.499 50.1731 125.499 50.1731C124.664 48.347 123.17 48.5252 122.934 48.5639C122.919 48.5671 122.906 48.5702 122.906 48.5702C122.857 48.5812 121.219 48.9803 121.253 51.1326C121.253 51.1326 120.978 56.0805 119.927 58.3835C118.473 61.5899 116.493 63.001 113.017 63.7866C107.015 65.143 105.422 64.7203 103.527 63.7788C100.334 62.181 98.38 53.3377 97.8371 53.2644L97.4717 53.2236C97.3643 53.2042 97.2803 53.1294 97.2568 53.0255L96.6496 50.0833ZM129.261 53.7018C130.603 55.5437 133.477 57.6635 136.721 57.0967C146.456 55.3968 146.306 52.669 146.457 50.4461C146.614 48.2216 146.362 46.3573 145.646 44.3303C144.921 42.305 144.109 41.2055 143.004 40.8101C142.527 40.6351 142.021 40.4958 140.825 40.5848C139.754 40.6674 138.133 40.9393 135.467 41.5417C133.923 41.8906 132.504 42.3348 131.26 42.833C127.954 44.1455 125.898 45.8064 126.152 46.9299C126.325 47.6966 127.274 50.9755 129.261 53.7018ZM102.449 60.391C103.54 62.3335 104.578 64.8603 114.097 62.2093C117.27 61.3259 118.953 58.1764 119.373 55.9362C119.995 52.621 119.441 49.2523 119.268 48.487C118.919 46.9423 114.175 46.354 108.541 47.6273C102.906 48.9007 102.097 49.5184 101.422 50.2076C100.595 51.0395 100.335 52.3814 100.551 54.5215C100.775 56.66 101.35 58.451 102.449 60.391Z" fill="#1A1A1A"/>
<path id="Vector 58" d="M153.378 82.0939L156.64 75.3571L155.846 74.8698L151.581 77.1669L149.917 78.8762L148.396 81.2198L145.718 84.4915L142.896 87.1289L139.425 89.9133L136.603 92.5508L132.845 94.0667L127.786 95.8766L122.298 95.7837L116.015 95.2035L106.051 93.4554L100.419 92.7282L86.2009 87.2752L85.8373 88.6906L87.5678 90.2994L90.0919 92.3955L92.6161 94.4916L94.9968 95.9535L99.9787 96.8275L102.866 97.5082L107.055 97.895L112.037 98.7691L116.875 99.0089L121.714 99.2487L127.853 99.1947L131.754 98.313L136.306 97.2844C136.826 97.1668 137.702 97.4133 138.907 96.6966L144.186 92.8371L148.165 89.2715L151.35 85.2186L153.378 82.0939Z" fill="#543E36"/>
<path id="Vector 59" d="M140.275 75.5286L143.964 78.2438L144.422 80.2696L139.766 78.0096L130.054 77.8383L119.388 82.6145L115.194 85.455L114.185 87.1027L113.472 83.9514L116.611 79.6933L128.783 74.5769L140.275 75.5286Z" fill="#543E36"/>
<rect id="Rectangle 91" x="128.942" y="88.8938" width="5" height="4" transform="rotate(-12.7339 128.942 88.8938)" fill="#543E36"/>
<path id="Vector 60" d="M87.2864 53.4383L87.6313 58.7384C87.9438 63.5421 85.0988 67.9917 80.6073 69.7239C78.4496 70.556 76.6107 71.818 77.6243 73.8966C78.5543 75.8036 79.7235 77.8897 78.7807 77.6079C77.8948 77.343 74.5896 73.2232 71.5137 68.7753C66.8808 62.076 67.1472 54.12 70.1126 46.5338L71.9134 41.9269C74.6185 35.0065 79.0472 28.8923 84.7793 24.1644C87.3153 22.0726 90.0797 20.2743 93.0199 18.8038L102.709 13.958C112.578 9.02199 124.014 8.24763 134.459 11.8081L139.628 13.57C141.604 14.2438 143.42 15.3191 144.96 16.7286L147.921 19.4376C149.687 21.0531 150.559 23.4249 150.26 25.7994L149.451 32.2401C149.266 33.711 147.751 34.6192 146.366 34.089C145.945 33.9276 145.485 33.8946 145.045 33.994L138.423 35.4905C136.221 35.9881 133.912 35.6127 131.981 34.4431L129.061 32.6748C125.583 30.5678 121.054 32.3656 119.967 36.2848C119.075 39.5021 115.775 41.4164 112.54 40.5933L104.935 38.6591C97.6023 36.7939 90.073 41.1126 87.876 48.353C87.3782 49.9937 87.1751 51.7274 87.2864 53.4383Z" fill="#543E36"/>
</g>
<path id="Vector_4" d="M331.206 416.945C329.318 418.572 327.09 419.757 324.685 420.412C322.279 421.067 319.758 421.176 317.305 420.731C314.852 420.286 312.529 419.298 310.508 417.84C308.487 416.381 306.818 414.489 305.623 412.303L288 380.04L301.328 369L330.381 390.994C332.366 392.497 333.99 394.425 335.134 396.636C336.278 398.847 336.913 401.285 336.992 403.773C337.071 406.261 336.592 408.735 335.591 411.014C334.59 413.293 333.092 415.319 331.206 416.945V416.945Z" fill="#ECC19C"/>
<path id="Vector_5" d="M310 371.357L289.23 388L176 300.788L182.7 149C189.068 154.062 194.363 160.328 198.278 167.437C202.194 174.545 204.652 182.354 205.51 190.412L224.91 276.156L310 371.357Z" fill="#505050"/>
<path id="Vector_6" d="M91.6667 725H63.6667L61 480H117L91.6667 725Z" fill="#ECC19C"/>
<path id="Vector_7" d="M161.667 738H133.667L131 476.667L187 474L161.667 738Z" fill="#ECC19C"/>
<path id="Vector_8" d="M198.494 501L128.769 503.667L126.088 489L122.065 509L57.7043 506.333C57.7151 441.486 59.1067 369.83 51 345L199.835 359.667C211.556 409.91 213.001 457.507 198.494 501Z" fill="#2F2E41"/>
<path id="Vector_9" d="M75.5007 789.558C60.5014 789.558 48.7423 795.422 50.108 780.381L53.993 729.525C54.0681 727.371 54.7635 725.285 55.9944 723.522C57.2254 721.758 58.939 720.393 60.9265 719.593V719.593C71.6162 706.975 82.306 705.63 92.9957 715.556C96.4714 719.931 98.4979 725.293 98.7903 730.887L100.965 781.396C101.718 796.076 90.0994 789.558 75.5007 789.558Z" fill="#2F2E41"/>
<path id="Vector_10" d="M213.499 789.862L141.831 787.966C138.863 787.554 136.153 786.06 134.22 783.772C132.287 781.484 131.268 778.563 131.359 775.569L130.008 740.561C129.922 738.836 130.512 737.146 131.654 735.85C132.796 734.553 134.399 733.754 136.121 733.622L147.142 732.774C148.449 720.788 155.75 717.879 165.941 719.351L198.169 755.593L219.406 761.537C222.811 762.49 225.75 764.654 227.672 767.621C229.593 770.589 230.364 774.155 229.839 777.651V777.651C229.273 781.427 227.239 784.827 224.18 787.113C221.12 789.4 217.282 790.387 213.499 789.862V789.862Z" fill="#2F2E41"/>
<path id="Vector_11" d="M204 376.998C163.837 382.101 126.834 366.64 91.8802 354.971C76.1007 349.703 60.2043 355.202 45.5554 346.293C51.89 284.262 45.7397 214.388 32.2841 139.926C31.5163 135.711 32.3172 131.362 34.5375 127.691C36.7577 124.019 40.2456 121.276 44.3504 119.974L88.5235 106L127.463 119.35L147.604 123.355L189.079 151.215C191.5 152.841 193.397 155.126 194.542 157.798C195.687 160.469 196.032 163.413 195.534 166.274C183.074 236.303 185.962 308.18 204 376.998V376.998Z" fill="#505050"/>
<path id="Vector_12" d="M91 355.643L77.5 390L64 370.179L81.55 353L91 355.643Z" fill="#ECC19C"/>
<path id="Vector_13" d="M84 353.031L65.3333 377L-2.5034e-06 279.793L5.65055 181.036C6.37023 168.458 10.2637 156.266 16.9687 145.595C23.6738 134.923 32.9725 126.118 43.9999 120V120L42.6666 271.803L84 353.031Z" fill="#505050"/>
</g>
</svg>
