<svg width="1430" height="983" viewBox="0 0 1430 983" fill="none" xmlns="http://www.w3.org/2000/svg">
<rect x="647" width="190" height="141" rx="4" fill="#939393"/>
<rect x="667" width="156" height="141" rx="4" fill="#5C5C5C"/>
<path d="M693.894 63.58C694.194 65.16 695.114 65.95 696.654 65.95C697.714 65.95 698.464 65.48 698.904 64.54C699.344 63.6 699.564 62.07 699.564 59.95C699.124 60.57 698.524 61.05 697.764 61.39C697.004 61.73 696.154 61.9 695.214 61.9C693.934 61.9 692.794 61.64 691.794 61.12C690.794 60.58 690.004 59.79 689.424 58.75C688.864 57.69 688.584 56.41 688.584 54.91C688.584 53.43 688.884 52.14 689.484 51.04C690.104 49.94 690.974 49.09 692.094 48.49C693.234 47.89 694.574 47.59 696.114 47.59C699.074 47.59 701.144 48.51 702.324 50.35C703.504 52.19 704.094 54.9 704.094 58.48C704.094 61.08 703.854 63.23 703.374 64.93C702.914 66.61 702.124 67.89 701.004 68.77C699.904 69.65 698.394 70.09 696.474 70.09C694.954 70.09 693.654 69.79 692.574 69.19C691.514 68.59 690.694 67.8 690.114 66.82C689.554 65.84 689.234 64.76 689.154 63.58H693.894ZM696.384 57.85C697.224 57.85 697.894 57.6 698.394 57.1C698.894 56.58 699.144 55.88 699.144 55C699.144 54.04 698.884 53.3 698.364 52.78C697.844 52.26 697.144 52 696.264 52C695.384 52 694.684 52.27 694.164 52.81C693.664 53.33 693.414 54.05 693.414 54.97C693.414 55.83 693.664 56.53 694.164 57.07C694.684 57.59 695.424 57.85 696.384 57.85ZM709.741 70.24C708.841 70.24 708.101 69.98 707.521 69.46C706.961 68.92 706.681 68.26 706.681 67.48C706.681 66.68 706.961 66.01 707.521 65.47C708.101 64.93 708.841 64.66 709.741 64.66C710.621 64.66 711.341 64.93 711.901 65.47C712.481 66.01 712.771 66.68 712.771 67.48C712.771 68.26 712.481 68.92 711.901 69.46C711.341 69.98 710.621 70.24 709.741 70.24ZM709.741 58.03C708.841 58.03 708.101 57.77 707.521 57.25C706.961 56.71 706.681 56.05 706.681 55.27C706.681 54.47 706.961 53.8 707.521 53.26C708.101 52.72 708.841 52.45 709.741 52.45C710.621 52.45 711.341 52.72 711.901 53.26C712.481 53.8 712.771 54.47 712.771 55.27C712.771 56.05 712.481 56.71 711.901 57.25C711.341 57.77 710.621 58.03 709.741 58.03ZM715.357 58.75C715.357 55.31 716.017 52.6 717.337 50.62C718.677 48.64 720.827 47.65 723.787 47.65C726.747 47.65 728.887 48.64 730.207 50.62C731.547 52.6 732.217 55.31 732.217 58.75C732.217 62.23 731.547 64.96 730.207 66.94C728.887 68.92 726.747 69.91 723.787 69.91C720.827 69.91 718.677 68.92 717.337 66.94C716.017 64.96 715.357 62.23 715.357 58.75ZM727.177 58.75C727.177 56.73 726.957 55.18 726.517 54.1C726.077 53 725.167 52.45 723.787 52.45C722.407 52.45 721.497 53 721.057 54.1C720.617 55.18 720.397 56.73 720.397 58.75C720.397 60.11 720.477 61.24 720.637 62.14C720.797 63.02 721.117 63.74 721.597 64.3C722.097 64.84 722.827 65.11 723.787 65.11C724.747 65.11 725.467 64.84 725.947 64.3C726.447 63.74 726.777 63.02 726.937 62.14C727.097 61.24 727.177 60.11 727.177 58.75ZM734.927 58.75C734.927 55.31 735.587 52.6 736.907 50.62C738.247 48.64 740.397 47.65 743.357 47.65C746.317 47.65 748.457 48.64 749.777 50.62C751.117 52.6 751.787 55.31 751.787 58.75C751.787 62.23 751.117 64.96 749.777 66.94C748.457 68.92 746.317 69.91 743.357 69.91C740.397 69.91 738.247 68.92 736.907 66.94C735.587 64.96 734.927 62.23 734.927 58.75ZM746.747 58.75C746.747 56.73 746.527 55.18 746.087 54.1C745.647 53 744.737 52.45 743.357 52.45C741.977 52.45 741.067 53 740.627 54.1C740.187 55.18 739.967 56.73 739.967 58.75C739.967 60.11 740.047 61.24 740.207 62.14C740.367 63.02 740.687 63.74 741.167 64.3C741.667 64.84 742.397 65.11 743.357 65.11C744.317 65.11 745.037 64.84 745.517 64.3C746.017 63.74 746.347 63.02 746.507 62.14C746.667 61.24 746.747 60.11 746.747 58.75ZM757.407 70.24C756.507 70.24 755.767 69.98 755.187 69.46C754.627 68.92 754.347 68.26 754.347 67.48C754.347 66.68 754.627 66.01 755.187 65.47C755.767 64.93 756.507 64.66 757.407 64.66C758.287 64.66 759.007 64.93 759.567 65.47C760.147 66.01 760.437 66.68 760.437 67.48C760.437 68.26 760.147 68.92 759.567 69.46C759.007 69.98 758.287 70.24 757.407 70.24ZM757.407 58.03C756.507 58.03 755.767 57.77 755.187 57.25C754.627 56.71 754.347 56.05 754.347 55.27C754.347 54.47 754.627 53.8 755.187 53.26C755.767 52.72 756.507 52.45 757.407 52.45C758.287 52.45 759.007 52.72 759.567 53.26C760.147 53.8 760.437 54.47 760.437 55.27C760.437 56.05 760.147 56.71 759.567 57.25C759.007 57.77 758.287 58.03 757.407 58.03ZM763.203 54.28C763.283 52.14 763.983 50.49 765.303 49.33C766.623 48.17 768.413 47.59 770.673 47.59C772.173 47.59 773.453 47.85 774.513 48.37C775.593 48.89 776.403 49.6 776.943 50.5C777.503 51.4 777.783 52.41 777.783 53.53C777.783 54.85 777.453 55.93 776.793 56.77C776.133 57.59 775.363 58.15 774.483 58.45V58.57C775.623 58.95 776.523 59.58 777.183 60.46C777.843 61.34 778.173 62.47 778.173 63.85C778.173 65.09 777.883 66.19 777.303 67.15C776.743 68.09 775.913 68.83 774.813 69.37C773.733 69.91 772.443 70.18 770.943 70.18C768.543 70.18 766.623 69.59 765.183 68.41C763.763 67.23 763.013 65.45 762.933 63.07H767.913C767.933 63.95 768.183 64.65 768.663 65.17C769.143 65.67 769.843 65.92 770.763 65.92C771.543 65.92 772.143 65.7 772.563 65.26C773.003 64.8 773.223 64.2 773.223 63.46C773.223 62.5 772.913 61.81 772.293 61.39C771.693 60.95 770.723 60.73 769.383 60.73H768.423V56.56H769.383C770.403 56.56 771.223 56.39 771.843 56.05C772.483 55.69 772.803 55.06 772.803 54.16C772.803 53.44 772.603 52.88 772.203 52.48C771.803 52.08 771.253 51.88 770.553 51.88C769.793 51.88 769.223 52.11 768.843 52.57C768.483 53.03 768.273 53.6 768.213 54.28H763.203ZM781.007 65.89C781.687 65.35 781.997 65.1 781.937 65.14C783.897 63.52 785.437 62.19 786.557 61.15C787.697 60.11 788.657 59.02 789.437 57.88C790.217 56.74 790.607 55.63 790.607 54.55C790.607 53.73 790.417 53.09 790.037 52.63C789.657 52.17 789.087 51.94 788.327 51.94C787.567 51.94 786.967 52.23 786.527 52.81C786.107 53.37 785.897 54.17 785.897 55.21H780.947C780.987 53.51 781.347 52.09 782.027 50.95C782.727 49.81 783.637 48.97 784.757 48.43C785.897 47.89 787.157 47.62 788.537 47.62C790.917 47.62 792.707 48.23 793.907 49.45C795.127 50.67 795.737 52.26 795.737 54.22C795.737 56.36 795.007 58.35 793.547 60.19C792.087 62.01 790.227 63.79 787.967 65.53H796.067V69.7H781.007V65.89Z" fill="#C7C7C7"/>
<path d="M728.616 86.98V94H726.906V89.79L725.336 94H723.956L722.376 89.78V94H720.666V86.98H722.686L724.656 91.84L726.606 86.98H728.616ZM733.166 94.07C732.506 94.07 731.899 93.9167 731.346 93.61C730.799 93.3033 730.362 92.8767 730.036 92.33C729.716 91.7767 729.556 91.1567 729.556 90.47C729.556 89.7833 729.716 89.1667 730.036 88.62C730.362 88.0733 730.799 87.6467 731.346 87.34C731.899 87.0333 732.506 86.88 733.166 86.88C733.826 86.88 734.429 87.0333 734.976 87.34C735.529 87.6467 735.962 88.0733 736.276 88.62C736.596 89.1667 736.756 89.7833 736.756 90.47C736.756 91.1567 736.596 91.7767 736.276 92.33C735.956 92.8767 735.522 93.3033 734.976 93.61C734.429 93.9167 733.826 94.07 733.166 94.07ZM733.166 92.51C733.726 92.51 734.172 92.3233 734.506 91.95C734.846 91.5767 735.016 91.0833 735.016 90.47C735.016 89.85 734.846 89.3567 734.506 88.99C734.172 88.6167 733.726 88.43 733.166 88.43C732.599 88.43 732.146 88.6133 731.806 88.98C731.472 89.3467 731.306 89.8433 731.306 90.47C731.306 91.09 731.472 91.5867 731.806 91.96C732.146 92.3267 732.599 92.51 733.166 92.51ZM743.987 94H742.277L739.417 89.67V94H737.707V86.98H739.417L742.277 91.33V86.98H743.987V94ZM747.856 86.98C748.596 86.98 749.243 87.1267 749.796 87.42C750.35 87.7133 750.776 88.1267 751.076 88.66C751.383 89.1867 751.536 89.7967 751.536 90.49C751.536 91.1767 751.383 91.7867 751.076 92.32C750.776 92.8533 750.346 93.2667 749.786 93.56C749.233 93.8533 748.59 94 747.856 94H745.226V86.98H747.856ZM747.746 92.52C748.393 92.52 748.896 92.3433 749.256 91.99C749.616 91.6367 749.796 91.1367 749.796 90.49C749.796 89.8433 749.616 89.34 749.256 88.98C748.896 88.62 748.393 88.44 747.746 88.44H746.936V92.52H747.746ZM756.862 92.76H754.242L753.822 94H752.032L754.572 86.98H756.552L759.092 94H757.282L756.862 92.76ZM756.422 91.44L755.552 88.87L754.692 91.44H756.422ZM765.885 86.98L763.455 91.68V94H761.745V91.68L759.315 86.98H761.255L762.615 89.92L763.965 86.98H765.885Z" fill="#C7C7C7"/>
<circle cx="787.5" cy="90.5" r="4.5" fill="#C4C4C4"/>
<circle cx="789" cy="89" r="4" fill="#5C5C5C"/>
<circle cx="788" cy="89.8182" r="0.909091" fill="#C4C4C4"/>
<path d="M787.501 88.8618C787.723 88.4783 788.277 88.4783 788.499 88.8618C788.721 89.2462 788.444 89.7273 788 89.7273C787.556 89.7273 787.279 89.2462 787.501 88.8618Z" fill="#C4C4C4"/>
<path d="M716.266 108.29V106.7H719.036V114H717.256V108.29H716.266ZM720.266 108.76C720.293 108.047 720.526 107.497 720.966 107.11C721.406 106.723 722.003 106.53 722.756 106.53C723.256 106.53 723.683 106.617 724.036 106.79C724.396 106.963 724.666 107.2 724.846 107.5C725.033 107.8 725.126 108.137 725.126 108.51C725.126 108.95 725.016 109.31 724.796 109.59C724.576 109.863 724.319 110.05 724.026 110.15V110.19C724.406 110.317 724.706 110.527 724.926 110.82C725.146 111.113 725.256 111.49 725.256 111.95C725.256 112.363 725.159 112.73 724.966 113.05C724.779 113.363 724.503 113.61 724.136 113.79C723.776 113.97 723.346 114.06 722.846 114.06C722.046 114.06 721.406 113.863 720.926 113.47C720.453 113.077 720.203 112.483 720.176 111.69H721.836C721.843 111.983 721.926 112.217 722.086 112.39C722.246 112.557 722.479 112.64 722.786 112.64C723.046 112.64 723.246 112.567 723.386 112.42C723.533 112.267 723.606 112.067 723.606 111.82C723.606 111.5 723.503 111.27 723.296 111.13C723.096 110.983 722.773 110.91 722.326 110.91H722.006V109.52H722.326C722.666 109.52 722.939 109.463 723.146 109.35C723.359 109.23 723.466 109.02 723.466 108.72C723.466 108.48 723.399 108.293 723.266 108.16C723.133 108.027 722.949 107.96 722.716 107.96C722.463 107.96 722.273 108.037 722.146 108.19C722.026 108.343 721.956 108.533 721.936 108.76H720.266ZM731.18 106.98C731.92 106.98 732.566 107.127 733.12 107.42C733.673 107.713 734.1 108.127 734.4 108.66C734.706 109.187 734.86 109.797 734.86 110.49C734.86 111.177 734.706 111.787 734.4 112.32C734.1 112.853 733.67 113.267 733.11 113.56C732.556 113.853 731.913 114 731.18 114H728.55V106.98H731.18ZM731.07 112.52C731.716 112.52 732.22 112.343 732.58 111.99C732.94 111.637 733.12 111.137 733.12 110.49C733.12 109.843 732.94 109.34 732.58 108.98C732.22 108.62 731.716 108.44 731.07 108.44H730.26V112.52H731.07ZM741.075 111.12C741.075 111.28 741.065 111.447 741.045 111.62H737.175C737.202 111.967 737.312 112.233 737.505 112.42C737.705 112.6 737.949 112.69 738.235 112.69C738.662 112.69 738.959 112.51 739.125 112.15H740.945C740.852 112.517 740.682 112.847 740.435 113.14C740.195 113.433 739.892 113.663 739.525 113.83C739.159 113.997 738.749 114.08 738.295 114.08C737.749 114.08 737.262 113.963 736.835 113.73C736.409 113.497 736.075 113.163 735.835 112.73C735.595 112.297 735.475 111.79 735.475 111.21C735.475 110.63 735.592 110.123 735.825 109.69C736.065 109.257 736.399 108.923 736.825 108.69C737.252 108.457 737.742 108.34 738.295 108.34C738.835 108.34 739.315 108.453 739.735 108.68C740.155 108.907 740.482 109.23 740.715 109.65C740.955 110.07 741.075 110.56 741.075 111.12ZM739.325 110.67C739.325 110.377 739.225 110.143 739.025 109.97C738.825 109.797 738.575 109.71 738.275 109.71C737.989 109.71 737.745 109.793 737.545 109.96C737.352 110.127 737.232 110.363 737.185 110.67H739.325ZM741.637 111.21C741.637 110.63 741.754 110.123 741.987 109.69C742.227 109.257 742.557 108.923 742.977 108.69C743.404 108.457 743.891 108.34 744.437 108.34C745.137 108.34 745.721 108.523 746.187 108.89C746.661 109.257 746.971 109.773 747.117 110.44H745.297C745.144 110.013 744.847 109.8 744.407 109.8C744.094 109.8 743.844 109.923 743.657 110.17C743.471 110.41 743.377 110.757 743.377 111.21C743.377 111.663 743.471 112.013 743.657 112.26C743.844 112.5 744.094 112.62 744.407 112.62C744.847 112.62 745.144 112.407 745.297 111.98H747.117C746.971 112.633 746.661 113.147 746.187 113.52C745.714 113.893 745.131 114.08 744.437 114.08C743.891 114.08 743.404 113.963 742.977 113.73C742.557 113.497 742.227 113.163 741.987 112.73C741.754 112.297 741.637 111.79 741.637 111.21ZM749.921 112.63C750.148 112.45 750.251 112.367 750.231 112.38C750.885 111.84 751.398 111.397 751.771 111.05C752.151 110.703 752.471 110.34 752.731 109.96C752.991 109.58 753.121 109.21 753.121 108.85C753.121 108.577 753.058 108.363 752.931 108.21C752.805 108.057 752.615 107.98 752.361 107.98C752.108 107.98 751.908 108.077 751.761 108.27C751.621 108.457 751.551 108.723 751.551 109.07H749.901C749.915 108.503 750.035 108.03 750.261 107.65C750.495 107.27 750.798 106.99 751.171 106.81C751.551 106.63 751.971 106.54 752.431 106.54C753.225 106.54 753.821 106.743 754.221 107.15C754.628 107.557 754.831 108.087 754.831 108.74C754.831 109.453 754.588 110.117 754.101 110.73C753.615 111.337 752.995 111.93 752.241 112.51H754.941V113.9H749.921V112.63ZM755.694 110.25C755.694 109.103 755.914 108.2 756.354 107.54C756.801 106.88 757.517 106.55 758.504 106.55C759.491 106.55 760.204 106.88 760.644 107.54C761.091 108.2 761.314 109.103 761.314 110.25C761.314 111.41 761.091 112.32 760.644 112.98C760.204 113.64 759.491 113.97 758.504 113.97C757.517 113.97 756.801 113.64 756.354 112.98C755.914 112.32 755.694 111.41 755.694 110.25ZM759.634 110.25C759.634 109.577 759.561 109.06 759.414 108.7C759.267 108.333 758.964 108.15 758.504 108.15C758.044 108.15 757.741 108.333 757.594 108.7C757.447 109.06 757.374 109.577 757.374 110.25C757.374 110.703 757.401 111.08 757.454 111.38C757.507 111.673 757.614 111.913 757.774 112.1C757.941 112.28 758.184 112.37 758.504 112.37C758.824 112.37 759.064 112.28 759.224 112.1C759.391 111.913 759.501 111.673 759.554 111.38C759.607 111.08 759.634 110.703 759.634 110.25ZM762.158 112.63C762.384 112.45 762.488 112.367 762.468 112.38C763.121 111.84 763.634 111.397 764.008 111.05C764.388 110.703 764.708 110.34 764.968 109.96C765.228 109.58 765.358 109.21 765.358 108.85C765.358 108.577 765.294 108.363 765.168 108.21C765.041 108.057 764.851 107.98 764.598 107.98C764.344 107.98 764.144 108.077 763.998 108.27C763.858 108.457 763.788 108.723 763.788 109.07H762.138C762.151 108.503 762.271 108.03 762.498 107.65C762.731 107.27 763.034 106.99 763.408 106.81C763.788 106.63 764.208 106.54 764.668 106.54C765.461 106.54 766.058 106.743 766.458 107.15C766.864 107.557 767.068 108.087 767.068 108.74C767.068 109.453 766.824 110.117 766.338 110.73C765.851 111.337 765.231 111.93 764.478 112.51H767.178V113.9H762.158V112.63ZM767.93 110.25C767.93 109.103 768.15 108.2 768.59 107.54C769.037 106.88 769.754 106.55 770.74 106.55C771.727 106.55 772.44 106.88 772.88 107.54C773.327 108.2 773.55 109.103 773.55 110.25C773.55 111.41 773.327 112.32 772.88 112.98C772.44 113.64 771.727 113.97 770.74 113.97C769.754 113.97 769.037 113.64 768.59 112.98C768.15 112.32 767.93 111.41 767.93 110.25ZM771.87 110.25C771.87 109.577 771.797 109.06 771.65 108.7C771.504 108.333 771.2 108.15 770.74 108.15C770.28 108.15 769.977 108.333 769.83 108.7C769.684 109.06 769.61 109.577 769.61 110.25C769.61 110.703 769.637 111.08 769.69 111.38C769.744 111.673 769.85 111.913 770.01 112.1C770.177 112.28 770.42 112.37 770.74 112.37C771.06 112.37 771.3 112.28 771.46 112.1C771.627 111.913 771.737 111.673 771.79 111.38C771.844 111.08 771.87 110.703 771.87 110.25Z" fill="#8E8E8E"/>
<path d="M544.559 958.649L549.044 820.463" stroke="#FFFEFF"/>
<path d="M557.159 961.305L561.736 820.31" stroke="#FFFEFF"/>
<path d="M551 959.982L555.522 820.672" stroke="#FFFEFF"/>
<path d="M562.773 962.049L567.404 819.368" stroke="#FFFEFF"/>
<path d="M568.424 961.669L573.019 820.112" stroke="#FFFEFF"/>
<path d="M575.201 961.325L579.741 821.454" stroke="#FFFEFF"/>
<path d="M581.997 960.42L586.445 823.357" stroke="#FFFEFF"/>
<path d="M544.554 958.649L549.002 821.586" stroke="#FFFEFF"/>
<path d="M588.865 957.268L593.113 826.384" stroke="#FFFEFF"/>
<path d="M537.886 955.636L542.134 824.752" stroke="#FFFEFF"/>
<path d="M595.77 952.992L599.726 831.096" stroke="#FFFEFF"/>
<path d="M531.524 952.043L535.553 827.9" stroke="#FFFEFF"/>
<path d="M602.674 948.716L606.339 835.807" stroke="#FFFEFF"/>
<path d="M524.659 946.24L528.324 833.331" stroke="#FFFEFF"/>
<path d="M609.67 941.632L612.879 842.766" stroke="#FFFEFF"/>
<path d="M518.119 939.295L521.126 838.117" stroke="#FFFEFF"/>
<path d="M616.433 932.854L619.022 853.086" stroke="#FFFEFF"/>
<path d="M511.677 929.472L514.282 849.211" stroke="#FFFEFF"/>
<path d="M536.502 955.015L589.446 956.724" stroke="#FFFEFF"/>
<path d="M526.564 948.509L598.64 951.421" stroke="#FFFEFF"/>
<path d="M520.559 942.41L606.745 944.91" stroke="#FFFEFF"/>
<path d="M514.574 935.75L612.577 938.914" stroke="#FFFEFF"/>
<path d="M511.395 929.462L616.157 932.844" stroke="#FFFEFF"/>
<path d="M507.653 923.156L619.174 926.756" stroke="#FFFEFF"/>
<path d="M506.727 916.94L622.754 920.686" stroke="#FFFEFF"/>
<path d="M504.683 910.408L624.091 914.263" stroke="#FFFEFF"/>
<path d="M504.875 904.51L624.283 908.365" stroke="#FFFEFF"/>
<path d="M505.076 898.331L624.484 902.186" stroke="#FFFEFF"/>
<path d="M505.276 892.152L624.684 896.007" stroke="#FFFEFF"/>
<path d="M505.477 885.973L624.885 889.827" stroke="#FFFEFF"/>
<path d="M505.677 879.793L625.085 883.648" stroke="#FFFEFF"/>
<path d="M505.878 873.614L625.286 877.469" stroke="#FFFEFF"/>
<path d="M506.079 867.435L625.486 871.29" stroke="#FFFEFF"/>
<path d="M506.833 861.552L624.551 865.352" stroke="#FFFEFF"/>
<path d="M509.859 855.186L623.07 858.841" stroke="#FFFEFF"/>
<path d="M512.876 849.097L620.455 852.571" stroke="#FFFEFF"/>
<path d="M517.601 842.502L615.604 845.666" stroke="#FFFEFF"/>
<path d="M521.726 837.012L612.408 839.926" stroke="#FFFEFF"/>
<path d="M531.538 830.019L603.632 832.35" stroke="#FFFEFF"/>
<rect x="3.61172" y="-3.38522" width="116.977" height="138.566" rx="58.4885" transform="matrix(0.999479 0.0322673 0.0324399 -0.999474 500.874 954.849)" stroke="#FF8080" stroke-width="7"/>
<rect width="11.2706" height="156.807" transform="matrix(0.999479 0.0322673 0.0324399 -0.999474 561.754 819.748)" fill="#FF8080"/>
<rect width="24.2319" height="79.8086" rx="9" transform="matrix(0.999479 0.0322673 0.0324399 -0.999474 560.627 663.385)" fill="#FF3131"/>
<path d="M593.206 622.945C591.318 624.572 589.09 625.757 586.685 626.412C584.279 627.067 581.758 627.176 579.305 626.731C576.852 626.286 574.529 625.298 572.508 623.84C570.487 622.381 568.818 620.489 567.623 618.303L550 586.04L563.328 575L592.381 596.994C594.366 598.497 595.99 600.425 597.134 602.636C598.278 604.847 598.913 607.285 598.992 609.773C599.071 612.261 598.592 614.735 597.591 617.014C596.59 619.293 595.092 621.319 593.206 622.945V622.945Z" fill="#ECC19C"/>
<path d="M572 577.357L551.23 594L438 506.788L444.7 355C451.068 360.062 456.363 366.328 460.278 373.437C464.194 380.545 466.652 388.354 467.51 396.412L486.91 482.156L572 577.357Z" fill="#505050"/>
<path d="M353.667 931H325.667L323 686H379L353.667 931Z" fill="#ECC19C"/>
<path d="M423.667 944H395.667L393 682.667L449 680L423.667 944Z" fill="#ECC19C"/>
<path d="M460.494 707L390.769 709.667L388.088 695L384.065 715L319.704 712.333C319.715 647.486 321.107 575.83 313 551L461.835 565.667C473.556 615.91 475.001 663.507 460.494 707Z" fill="#2F2E41"/>
<path d="M337.501 995.558C322.501 995.558 310.742 1001.42 312.108 986.381L315.993 935.525C316.068 933.371 316.763 931.285 317.994 929.522C319.225 927.758 320.939 926.393 322.926 925.593V925.593C333.616 912.975 344.306 911.63 354.996 921.556C358.471 925.931 360.498 931.293 360.79 936.887L362.965 987.396C363.718 1002.08 352.099 995.558 337.501 995.558Z" fill="#2F2E41"/>
<path d="M475.499 995.862L403.831 993.966C400.863 993.554 398.153 992.06 396.22 989.772C394.287 987.484 393.268 984.563 393.359 981.569L392.008 946.561C391.922 944.836 392.512 943.146 393.654 941.85C394.796 940.553 396.399 939.754 398.121 939.622L409.142 938.774C410.449 926.788 417.75 923.879 427.941 925.351L460.169 961.593L481.406 967.537C484.811 968.49 487.75 970.654 489.672 973.621C491.593 976.589 492.364 980.155 491.839 983.651V983.651C491.273 987.427 489.239 990.827 486.18 993.113C483.12 995.4 479.282 996.387 475.499 995.862V995.862Z" fill="#2F2E41"/>
<path d="M388.223 307.811C365.867 312.863 343.697 299.054 338.706 276.967C333.715 254.88 347.792 232.88 370.148 227.828C392.504 222.776 414.674 236.585 419.665 258.672C424.656 280.759 410.579 302.759 388.223 307.811Z" fill="#ECC19C"/>
<path d="M416.247 334.285L342.585 330.427C356.718 320.93 360.333 309.119 353.825 295.08L399.559 284.745C398.703 308.303 402.778 326.448 416.247 334.285Z" fill="#ECC19C"/>
<path d="M466 582.998C425.837 588.101 388.834 572.64 353.88 560.971C338.101 555.703 322.204 561.202 307.555 552.293C313.89 490.262 307.74 420.388 294.284 345.926C293.516 341.711 294.317 337.362 296.537 333.691C298.758 330.019 302.246 327.276 306.35 325.974L350.523 312L389.463 325.35L409.604 329.355L451.079 357.215C453.5 358.841 455.397 361.126 456.542 363.798C457.687 366.469 458.032 369.413 457.534 372.274C445.074 442.303 447.962 514.18 466 582.998V582.998Z" fill="#505050"/>
<path d="M353 561.643L339.5 596L326 576.179L343.55 559L353 561.643Z" fill="#ECC19C"/>
<path d="M346 559.031L327.333 583L262 485.793L267.651 387.036C268.37 374.458 272.264 362.266 278.969 351.595C285.674 340.923 294.972 332.118 306 326V326L304.667 477.803L346 559.031Z" fill="#505050"/>
<path d="M358.65 256.083C358.623 255.966 358.692 255.842 358.809 255.801C359.789 255.42 364.221 253.772 369.137 252.662C374.716 251.401 382.303 251.484 383.558 251.2L384.672 250.949C385.258 250.816 387.049 250.02 389.358 249.085C392.013 248.007 395.344 246.739 398.32 246.067C401.917 245.254 405.405 244.814 407.426 244.603C408.164 244.524 408.71 244.479 408.994 244.459C409.118 244.446 409.233 244.528 409.259 244.646L409.978 247.563C410.001 247.667 409.958 247.771 409.869 247.835L409.557 248.029C409.099 248.328 411.137 257.152 408.942 259.968C407.635 261.633 406.379 262.699 400.377 264.056C396.9 264.841 394.507 264.419 391.814 262.149C389.875 260.522 387.499 256.173 387.499 256.173C386.664 254.347 385.17 254.525 384.934 254.564C384.919 254.567 384.906 254.57 384.906 254.57C384.857 254.581 383.219 254.98 383.253 257.133C383.253 257.133 382.978 262.08 381.927 264.384C380.473 267.59 378.493 269.001 375.017 269.787C369.015 271.143 367.422 270.72 365.527 269.779C362.334 268.181 360.38 259.338 359.837 259.264L359.472 259.224C359.364 259.204 359.28 259.129 359.257 259.025L358.65 256.083ZM391.261 259.702C392.603 261.544 395.477 263.664 398.721 263.097C408.456 261.397 408.306 258.669 408.457 256.446C408.614 254.222 408.362 252.357 407.646 250.33C406.921 248.305 406.109 247.205 405.004 246.81C404.527 246.635 404.021 246.496 402.825 246.585C401.754 246.667 400.133 246.939 397.467 247.542C395.923 247.891 394.504 248.335 393.26 248.833C389.954 250.145 387.898 251.806 388.152 252.93C388.325 253.697 389.274 256.975 391.261 259.702ZM364.449 266.391C365.54 268.333 366.578 270.86 376.097 268.209C379.27 267.326 380.953 264.176 381.373 261.936C381.995 258.621 381.441 255.252 381.268 254.487C380.919 252.942 376.175 252.354 370.541 253.627C364.906 254.901 364.097 255.518 363.422 256.208C362.595 257.04 362.335 258.381 362.551 260.522C362.775 262.66 363.35 264.451 364.449 266.391Z" fill="#1A1A1A"/>
<path d="M415.378 288.094L418.64 281.357L417.846 280.87L413.581 283.167L411.917 284.876L410.396 287.22L407.718 290.491L404.896 293.129L401.425 295.913L398.603 298.551L394.845 300.067L389.786 301.877L384.298 301.784L378.015 301.204L368.051 299.455L362.419 298.728L348.201 293.275L347.837 294.691L349.568 296.299L352.092 298.396L354.616 300.492L356.997 301.953L361.979 302.828L364.866 303.508L369.055 303.895L374.037 304.769L378.875 305.009L383.714 305.249L389.853 305.195L393.754 304.313L398.306 303.284C398.826 303.167 399.702 303.413 400.907 302.697L406.186 298.837L410.165 295.271L413.35 291.219L415.378 288.094Z" fill="#543E36"/>
<path d="M402.275 281.529L405.964 284.244L406.422 286.27L401.766 284.01L392.054 283.838L381.388 288.614L377.194 291.455L376.185 293.103L375.472 289.951L378.611 285.693L390.783 280.577L402.275 281.529Z" fill="#543E36"/>
<rect x="390.942" y="294.894" width="5" height="4" transform="rotate(-12.7339 390.942 294.894)" fill="#543E36"/>
<path d="M349.286 259.438L349.631 264.738C349.944 269.542 347.099 273.992 342.607 275.724C340.45 276.556 338.611 277.818 339.624 279.897C340.554 281.804 341.723 283.89 340.781 283.608C339.895 283.343 336.59 279.223 333.514 274.775C328.881 268.076 329.147 260.12 332.113 252.534L333.913 247.927C336.619 241.007 341.047 234.892 346.779 230.164C349.315 228.073 352.08 226.274 355.02 224.804L364.709 219.958C374.578 215.022 386.014 214.248 396.459 217.808L401.628 219.57C403.604 220.244 405.42 221.319 406.96 222.729L409.921 225.438C411.687 227.053 412.559 229.425 412.26 231.799L411.451 238.24C411.266 239.711 409.751 240.619 408.366 240.089C407.945 239.928 407.485 239.895 407.045 239.994L400.423 241.491C398.221 241.988 395.912 241.613 393.981 240.443L391.061 238.675C387.583 236.568 383.054 238.366 381.967 242.285C381.075 245.502 377.775 247.416 374.54 246.593L366.935 244.659C359.602 242.794 352.073 247.113 349.876 254.353C349.378 255.994 349.175 257.727 349.286 259.438Z" fill="#543E36"/>
<path d="M1278.54 725.169C1280.19 724.898 1281.87 724.953 1283.5 725.332C1285.12 725.711 1286.66 726.405 1288.01 727.375C1289.36 728.345 1290.5 729.57 1291.37 730.981C1292.24 732.392 1292.82 733.959 1293.07 735.592L1298 767.599L1281.22 772L1268.93 742.179C1268.22 740.446 1267.91 738.576 1268.02 736.709C1268.14 734.841 1268.68 733.023 1269.6 731.389C1270.52 729.755 1271.81 728.348 1273.35 727.271C1274.9 726.194 1276.67 725.476 1278.54 725.169Z" fill="#ECC19C"/>
<path d="M1278.27 767.532C1269.06 803.793 1273.03 836.959 1307.31 863C1348.42 851.766 1375.77 824.662 1392.45 785.27C1393.49 782.821 1394.02 780.189 1394 777.532C1393.98 774.876 1393.42 772.251 1392.35 769.815C1391.28 767.379 1389.73 765.184 1387.78 763.36C1385.83 761.537 1383.53 760.124 1381.01 759.207V759.207C1377.23 757.83 1373.12 757.626 1369.22 758.622C1365.32 759.618 1361.82 761.767 1359.19 764.783L1318.84 810.935L1299.92 764.398L1278.27 767.532Z" fill="#804500"/>
<path d="M1067.62 958C1105.65 956.021 1129.28 943.23 1135 917L1128.87 906L1058.74 937.294C1056.97 938.084 1055.48 939.372 1054.46 940.994C1053.44 942.616 1052.93 944.499 1053.01 946.403C1053.08 948.308 1053.73 950.148 1054.88 951.689C1056.02 953.23 1057.61 954.404 1059.43 955.06L1067.62 958Z" fill="#E6E6E6"/>
<path d="M1096.37 958.184C1116.05 957.599 1134.98 957.781 1152.91 958.973C1156.06 959.184 1159.16 958.168 1161.55 956.146C1163.94 954.124 1165.42 951.258 1165.67 948.171L1166.75 934.952L1182 910.983L1168.78 898C1146.57 919.73 1122.2 937.983 1093.27 948.833C1092.34 949.459 1091.64 950.363 1091.28 951.412C1090.91 952.46 1090.91 953.595 1091.26 954.648C1091.61 955.7 1092.29 956.614 1093.21 957.251C1094.13 957.889 1095.24 958.216 1096.37 958.184V958.184Z" fill="#E6E6E6"/>
<path d="M1203.47 863.583C1228.33 907.856 1252.79 937.701 1284.96 953.678C1324.53 966.675 1353.46 949.455 1376 914.136L1310.61 871.091L1301.05 880.601L1214.44 815.014C1212.32 813.02 1209.5 811.938 1206.59 812.003C1203.67 812.067 1200.9 813.273 1198.88 815.358L1125 905.627L1134.05 920.643L1203.47 863.583Z" fill="#2F2E41"/>
<path d="M1181.36 916L1216 864L1207.85 849L1162 896L1181.36 916Z" fill="#2F2E41"/>
<path d="M1378.5 747C1359.45 747 1344 731.778 1344 713C1344 694.222 1359.45 679 1378.5 679C1397.55 679 1413 694.222 1413 713C1413 731.778 1397.55 747 1378.5 747Z" fill="#ECC19C"/>
<path d="M1369 779L1408 766C1402.23 757.064 1399.7 746.501 1400.82 736H1369C1370.81 751.258 1371.08 765.73 1369 779Z" fill="#ECC19C"/>
<path d="M1288 870C1293.73 872.339 1294.15 879.923 1299.57 882.5C1325.77 894.959 1353.48 905.068 1372.5 923C1416.96 892.99 1458.17 799.783 1404.7 759C1386.44 769.617 1370.14 777.215 1370.49 759L1288 870Z" fill="#804500"/>
<path opacity="0.2" d="M1311 829.539L1329.64 823.004L1366.41 851.66L1382.9 792.434C1384.04 788.326 1385.9 790.408 1388.56 793.262C1391.33 790.7 1394.78 788.984 1398.5 788.314C1402.22 787.645 1406.05 788.05 1409.54 789.483C1413.04 790.916 1416.05 793.316 1418.22 796.401C1420.4 799.485 1421.64 803.126 1421.81 806.893C1423.77 849.853 1410.79 886.199 1378.51 914C1336.28 904.978 1318.36 876.509 1311 839.594L1313 838.266C1312.26 835.414 1311.6 832.505 1311 829.539Z" fill="black"/>
<path d="M1310 785.163L1278.4 822L1231 766.532L1263.03 728L1310 785.163Z" fill="#3F3D56"/>
<path d="M1239.62 768L1276 737.643C1273.93 732.583 1264.01 734.27 1264.01 734.27L1235.53 763.714C1234.54 764.74 1233.69 765.898 1233 767.157V767.157L1239.62 768Z" fill="#F2F2F2"/>
<path d="M1236.64 765.861L1279.46 733L1327 803.778L1282.25 833.48C1277.96 835.165 1273.68 832.216 1273.68 832.216L1230 766.493L1236.64 765.861Z" fill="#3F3D56"/>
<path d="M1274.43 743.196L1274.83 743.749L1247.7 763.09L1247.3 762.536L1274.43 743.196Z" fill="#6C63FF"/>
<path d="M1246.94 769.775L1282.55 823.179L1281.98 823.555L1246.37 770.151L1246.94 769.775Z" fill="#6C63FF"/>
<path d="M1315.12 803.745L1315.53 804.294L1286.71 825.328L1286.3 824.779L1315.12 803.745Z" fill="#6C63FF"/>
<path d="M1279.58 744.118L1316.45 796.681L1315.89 797.07L1279.01 744.507L1279.58 744.118Z" fill="#6C63FF"/>
<path d="M1268.19 733.803L1268.47 734.113L1234.93 764.651L1234.64 764.342L1268.19 733.803Z" fill="#B3B3B3"/>
<path d="M1270.98 734.065L1271.26 734.38L1236.21 765.081L1235.93 764.766L1270.98 734.065Z" fill="#B3B3B3"/>
<path d="M1273.17 734.677L1273.44 735L1237.05 765.092L1236.78 764.768L1273.17 734.677Z" fill="#B3B3B3"/>
<path d="M1293.23 796.213C1294.55 795.278 1296.05 794.62 1297.63 794.276C1299.2 793.932 1300.83 793.909 1302.42 794.209C1304.01 794.509 1305.52 795.126 1306.87 796.024C1308.22 796.921 1309.38 798.082 1310.29 799.438L1328 826.014L1315.19 837L1291.96 815.472C1290.61 814.221 1289.56 812.678 1288.88 810.958C1288.2 809.238 1287.91 807.384 1288.03 805.534C1288.15 803.684 1288.68 801.886 1289.58 800.272C1290.48 798.659 1291.73 797.271 1293.23 796.213V796.213Z" fill="#ECC19C"/>
<path d="M1311 833.593C1318.36 870.509 1336.28 898.978 1378.51 908C1410.79 880.198 1423.77 843.852 1421.81 800.891C1421.69 798.22 1421.02 795.601 1419.86 793.193C1418.69 790.784 1417.05 788.636 1415.03 786.878C1413.02 785.121 1410.66 783.789 1408.11 782.965C1405.56 782.14 1402.87 781.839 1400.2 782.081V782.081C1396.2 782.445 1392.39 784.018 1389.3 786.591C1386.21 789.165 1383.98 792.616 1382.9 796.487L1366.41 855.714L1329.2 821.485L1311 833.593Z" fill="#804500"/>
<path d="M1340.49 694.757L1341.9 702.871C1342.09 704.009 1342.65 705.055 1343.48 705.856C1344.91 707.235 1346.98 707.724 1348.88 707.131L1349.24 707.018C1350.73 706.551 1351.99 705.525 1352.74 704.154L1352.87 703.933L1354.85 701.245C1357.15 698.133 1359.92 695.401 1363.06 693.148L1365.51 691.396L1369.13 688.968C1372.16 686.938 1375.67 685.729 1379.3 685.461C1380.68 685.359 1382.07 685.393 1383.45 685.564L1389.28 686.289C1390.3 686.415 1391.3 686.641 1392.27 686.964L1392.4 687.007C1396.04 688.219 1399.09 690.765 1400.93 694.134L1402.19 696.436C1404.19 700.093 1403.94 704.567 1401.55 707.982L1399.41 711.049C1396.76 714.828 1398.03 720.069 1402.11 722.22L1408.48 725.58C1410.15 726.457 1412.17 725.4 1412.4 723.534C1412.45 723.136 1412.59 722.754 1412.81 722.416L1416.84 716.115C1418.5 713.535 1419.55 710.617 1419.93 707.576C1420.32 704.414 1419.97 701.204 1418.91 698.201L1417.93 695.426C1416.93 692.604 1415.55 689.931 1413.83 687.481L1411.8 684.579C1409.48 681.274 1406.59 678.408 1403.27 676.113C1399.54 673.537 1395.34 671.73 1390.9 670.8L1383.39 669.225C1381.1 668.744 1378.76 668.481 1376.42 668.442L1372.35 668.373C1368.06 668.301 1363.79 668.996 1359.75 670.427L1357.76 671.13C1354.76 672.192 1351.99 673.817 1349.59 675.919L1346.45 678.676C1344.96 679.987 1343.87 681.693 1343.3 683.598L1341.63 689.76C1341.51 690.199 1341.33 690.622 1341.11 691.021C1340.49 692.159 1340.27 693.476 1340.49 694.757Z" fill="#543E36"/>
<path d="M1353.79 708.464L1366.22 703.505C1367.18 703.123 1368.23 703.799 1368.28 704.829L1368.67 713.287C1368.7 713.925 1368.32 714.512 1367.73 714.749L1360.44 717.654C1359.85 717.891 1359.17 717.726 1358.75 717.242L1353.22 710.839C1352.54 710.059 1352.84 708.846 1353.79 708.464Z" fill="#ECC19C" stroke="black"/>
<path d="M1369 708.5L1384.01 701.186C1386.7 699.878 1389.92 700.417 1392.03 702.529L1392.5 703" stroke="black"/>
<path d="M1383.59 746.102L1380.91 746.772C1378.98 747.256 1376.99 747.5 1375 747.5C1374 747.5 1373.01 747.387 1372.04 747.163L1368.18 746.271C1367.39 746.091 1366.63 745.841 1365.89 745.525L1363.74 744.603C1363.58 744.535 1363.44 744.437 1363.32 744.315L1362.71 743.712C1362.08 743.08 1362.53 742 1363.42 742C1363.47 742 1363.53 741.996 1363.58 741.988L1372.86 740.522C1372.95 740.507 1373.05 740.5 1373.14 740.5C1373.95 740.5 1374.66 739.972 1374.89 739.2L1375.82 736.085C1375.94 735.696 1376.02 735.296 1376.06 734.892L1376.96 725.435C1376.99 725.148 1377.07 724.867 1377.2 724.609C1378.1 722.809 1380.7 722.904 1381.46 724.765L1383 728.5L1386.99 739.757C1387.84 742.152 1386.71 744.797 1384.39 745.828C1384.13 745.943 1383.86 746.034 1383.59 746.102Z" fill="#543E36"/>
<path d="M1350.45 733.179C1349.69 732.102 1350.23 730.61 1351.48 730.203L1365.94 725.506C1366.85 725.212 1367.84 725.597 1368.3 726.428L1368.53 726.825C1369.5 728.557 1367.57 730.471 1365.85 729.485V729.485C1365.31 729.18 1364.67 729.143 1364.1 729.387L1352.55 734.37C1352.08 734.574 1351.54 734.569 1351.2 734.178C1351.01 733.952 1350.77 733.632 1350.45 733.179Z" fill="#543E36"/>
<path d="M1356 738.5L1361 738L1361.5 740L1359 741C1357.65 740.298 1357 739.74 1356 738.5Z" fill="#543E36"/>
<rect x="-5" y="28" width="234" height="956" fill="#C4CACE"/>
<rect x="-5" y="64" width="208" height="252" fill="#ECECEC"/>
<rect x="-4" y="377" width="208" height="252" fill="#ECECEC"/>
<rect x="-6" y="696" width="208" height="252" fill="#ECECEC"/>
<path d="M168.806 152.632C174.147 154.582 178.877 155.654 183.613 155.709C188.361 155.764 192.966 154.795 198.059 152.86C199.343 152.372 200.5 153.332 200.5 154.348V312C200.5 312.828 199.828 313.5 199 313.5H168C167.172 313.5 166.5 312.828 166.5 312V154.106C166.5 153.087 167.608 152.195 168.806 152.632Z" fill="#43B0FF" stroke="#37A6F7" stroke-width="5" stroke-linecap="round" stroke-linejoin="round"/>
<path d="M129.796 205.992C140.938 208.943 148.943 209.165 159.608 206.465C160.754 206.174 161.735 207.039 161.724 208.009L160.543 312.407C160.534 313.236 159.854 313.899 159.026 313.89L128.028 313.539C127.2 313.53 126.536 312.851 126.545 312.022L127.728 207.474C127.739 206.512 128.708 205.704 129.796 205.992Z" fill="#05C9A5" stroke="#A1FFBB" stroke-width="5" stroke-linecap="round" stroke-linejoin="round"/>
<path d="M178.53 271.318H185.88C186.9 271.318 187.695 271.613 188.265 272.203C188.825 272.793 189.105 273.583 189.105 274.573C189.105 275.573 188.815 276.383 188.235 277.003C187.655 277.613 186.845 277.918 185.805 277.918V275.818C186.255 275.808 186.605 275.703 186.855 275.503C187.105 275.293 187.23 274.993 187.23 274.603C187.23 274.223 187.11 273.933 186.87 273.733C186.63 273.533 186.3 273.433 185.88 273.433H178.53V271.318ZM187.005 262.448V266.618L189 267.308V269.513L178.515 265.748V263.303L189 259.538V261.758L187.005 262.448ZM185.325 263.018L180.945 264.533L185.325 266.048V263.018ZM178.53 248.726L189 252.566V255.116L178.53 258.956V256.706L186.855 253.826L178.53 250.961V248.726ZM187.005 241.046V245.216L189 245.906V248.111L178.515 244.346V241.901L189 238.136V240.356L187.005 241.046ZM185.325 241.616L180.945 243.131L185.325 244.646V241.616ZM189.105 233.114C189.105 233.844 188.98 234.504 188.73 235.094C188.48 235.674 188.12 236.134 187.65 236.474C187.18 236.814 186.625 236.989 185.985 236.999V234.749C186.415 234.719 186.755 234.569 187.005 234.299C187.255 234.019 187.38 233.639 187.38 233.159C187.38 232.669 187.265 232.284 187.035 232.004C186.795 231.724 186.485 231.584 186.105 231.584C185.795 231.584 185.54 231.679 185.34 231.869C185.14 232.059 184.985 232.299 184.875 232.589C184.755 232.869 184.625 233.259 184.485 233.759C184.285 234.439 184.09 234.994 183.9 235.424C183.7 235.844 183.405 236.209 183.015 236.519C182.615 236.819 182.085 236.969 181.425 236.969C180.805 236.969 180.265 236.814 179.805 236.504C179.345 236.194 178.995 235.759 178.755 235.199C178.505 234.639 178.38 233.999 178.38 233.279C178.38 232.199 178.645 231.324 179.175 230.654C179.695 229.974 180.425 229.599 181.365 229.529V231.839C181.005 231.859 180.71 232.014 180.48 232.304C180.24 232.584 180.12 232.959 180.12 233.429C180.12 233.839 180.225 234.169 180.435 234.419C180.645 234.659 180.95 234.779 181.35 234.779C181.63 234.779 181.865 234.689 182.055 234.509C182.235 234.319 182.385 234.089 182.505 233.819C182.615 233.539 182.745 233.149 182.895 232.649C183.095 231.969 183.295 231.414 183.495 230.984C183.695 230.554 183.995 230.184 184.395 229.874C184.795 229.564 185.32 229.409 185.97 229.409C186.53 229.409 187.05 229.554 187.53 229.844C188.01 230.134 188.395 230.559 188.685 231.119C188.965 231.679 189.105 232.344 189.105 233.114ZM183.75 228.099C182.72 228.099 181.8 227.869 180.99 227.409C180.17 226.939 179.535 226.304 179.085 225.504C178.625 224.694 178.395 223.789 178.395 222.789C178.395 221.619 178.695 220.594 179.295 219.714C179.895 218.834 180.725 218.219 181.785 217.869V220.284C181.285 220.524 180.91 220.864 180.66 221.304C180.41 221.734 180.285 222.234 180.285 222.804C180.285 223.414 180.43 223.959 180.72 224.439C181 224.909 181.4 225.279 181.92 225.549C182.44 225.809 183.05 225.939 183.75 225.939C184.44 225.939 185.05 225.809 185.58 225.549C186.1 225.279 186.505 224.909 186.795 224.439C187.075 223.959 187.215 223.414 187.215 222.804C187.215 222.234 187.09 221.734 186.84 221.304C186.58 220.864 186.2 220.524 185.7 220.284V217.869C186.77 218.219 187.605 218.834 188.205 219.714C188.795 220.584 189.09 221.609 189.09 222.789C189.09 223.789 188.865 224.694 188.415 225.504C187.955 226.304 187.32 226.939 186.51 227.409C185.7 227.869 184.78 228.099 183.75 228.099ZM189 210.675L184.92 212.985V213.975H189V216.075H178.53V212.145C178.53 211.335 178.675 210.645 178.965 210.075C179.245 209.505 179.63 209.08 180.12 208.8C180.6 208.51 181.14 208.365 181.74 208.365C182.43 208.365 183.055 208.565 183.615 208.965C184.165 209.365 184.545 209.96 184.755 210.75L189 208.245V210.675ZM183.345 213.975V212.22C183.345 211.65 183.21 211.225 182.94 210.945C182.66 210.665 182.275 210.525 181.785 210.525C181.305 210.525 180.935 210.665 180.675 210.945C180.405 211.225 180.27 211.65 180.27 212.22V213.975H183.345ZM178.53 204.365H189V206.465H178.53V204.365ZM181.77 194.656C182.33 194.656 182.855 194.791 183.345 195.061C183.835 195.321 184.23 195.736 184.53 196.306C184.83 196.866 184.98 197.576 184.98 198.436V200.191H189V202.291H178.53V198.436C178.53 197.626 178.67 196.936 178.95 196.366C179.23 195.796 179.615 195.371 180.105 195.091C180.595 194.801 181.15 194.656 181.77 194.656ZM183.285 198.526C183.285 197.946 183.155 197.516 182.895 197.236C182.625 196.956 182.25 196.816 181.77 196.816C180.75 196.816 180.24 197.386 180.24 198.526V200.191H183.285V198.526ZM178.53 186.04H180.225V188.83H189V190.93H180.225V193.72H178.53V186.04Z" fill="#D3EAFF"/>
<path d="M140.624 275.908H149V277.588H145.436V281.176H149V282.856H140.624V281.176H144.068V277.588H140.624V275.908ZM140.624 265.374H141.98V267.607H149V269.287H141.98V271.519H140.624V265.374ZM140.624 251.837H149V253.517H143.552L149 255.761V257.033L143.552 259.289H149V260.969H140.624V259.061L146.852 256.397L140.624 253.733V251.837ZM147.668 245.316V242.556H149V246.996H140.624V245.316H147.668Z" fill="#D3EAFF"/>
<path d="M10.7701 305.519C14.2363 300.244 16.029 295.483 15.9359 290.825C15.8422 286.131 13.8433 281.962 10.5961 277.868C10.0853 277.224 9.99937 276.345 10.3103 275.592C10.6091 274.867 11.1522 274.5 11.8001 274.5L106.495 274.5C107.111 274.5 107.63 274.868 107.83 275.382C110.299 281.692 111.485 286.657 111.5 291.521C111.515 296.38 110.363 301.339 107.847 307.634C107.646 308.137 107.133 308.5 106.522 308.5L12.0853 308.5C11.4715 308.5 10.958 308.165 10.6575 307.546C10.3467 306.906 10.3641 306.137 10.7701 305.519Z" fill="white" stroke="#A5B3FF" stroke-width="5" stroke-linecap="round" stroke-linejoin="round"/>
<path d="M7.5 277H104V306H8C11.8909 294.131 11.4193 287.794 7.5 277Z" fill="white"/>
<path d="M10 282H106.5" stroke="#EFEFEF"/>
<path d="M12 288H108.5" stroke="#EFEFEF"/>
<path d="M10 297H106.5" stroke="#EFEFEF"/>
<path d="M10 304H106.5" stroke="#EFEFEF"/>
<path d="M39.154 265.203C40.8326 262.139 41.7059 259.231 41.6525 256.346C41.5988 253.443 40.6119 250.815 38.9953 248.314C38.4911 247.534 38.4409 246.509 38.789 245.685C39.1192 244.903 39.6676 244.553 40.3001 244.553L108.243 244.553C108.866 244.553 109.372 244.924 109.559 245.417C111.213 249.766 111.99 253.203 112 256.548C112.01 259.887 111.255 263.319 109.575 267.654C109.388 268.135 108.889 268.5 108.27 268.5L40.5853 268.5C39.9841 268.5 39.4582 268.175 39.1245 267.505C38.7755 266.804 38.7604 265.922 39.154 265.203Z" fill="white" stroke="#E2A5FF" stroke-width="5" stroke-linecap="round" stroke-linejoin="round"/>
<path d="M36 247H107V266H36.3679C38.4534 257.773 38.1302 253.635 36 247Z" fill="white"/>
<path d="M37.3088 249.476L105 249.02" stroke="#EFEFEF"/>
<path d="M38.7935 253.929L108 253.999" stroke="#EFEFEF"/>
<path d="M37.3088 260.609H108.933" stroke="#EFEFEF"/>
<path d="M37 265L105.691 265.19" stroke="#EFEFEF"/>
<rect x="81" y="181" width="2" height="3" rx="1" fill="#343434"/>
<rect x="80" y="183" width="4" height="31" rx="1" fill="#68D2FF"/>
<rect x="84" y="184" width="1" height="8" rx="0.5" fill="#0077AA"/>
<rect x="85" y="187" width="1" height="8" rx="0.5" fill="#0077AA"/>
<rect x="55.6454" y="183.784" width="7.77616" height="53" transform="rotate(-20.8822 55.6454 183.784)" fill="white" fill-opacity="0.57" stroke="black"/>
<path d="M64 184L62.5 184.5" stroke="black"/>
<path d="M65.5 188L64 188.5" stroke="black"/>
<path d="M67.5 193L66 193.5" stroke="black"/>
<path d="M69.5 198L68 198.5" stroke="black"/>
<path d="M71.5 203L70 203.5" stroke="black"/>
<path d="M60.7592 202.265C65.7295 204.248 70.0743 205.309 74.4738 205.333C78.8767 205.358 83.2257 204.342 88.2059 202.326C89.3429 201.866 90.5 202.701 90.5 203.763V239C90.5 239.828 89.8284 240.5 89 240.5H60C59.1716 240.5 58.5 239.828 58.5 239V203.699C58.5 202.64 59.6401 201.819 60.7592 202.265Z" fill="#FF9F9F" stroke="#FFC8C8" stroke-width="3" stroke-linecap="square" stroke-linejoin="round"/>
<path d="M60.9957 184.934L60.9109 184.691L61.3661 184.532L61.8454 185.909L61.5735 186.004L61.1789 184.871L60.9957 184.934Z" fill="black"/>
<path d="M62.6668 189.88C62.7526 189.737 62.8198 189.62 62.8683 189.528C62.9164 189.435 62.9517 189.344 62.9741 189.254C62.9965 189.164 62.9955 189.084 62.9709 189.014C62.9486 188.949 62.9159 188.904 62.873 188.878C62.83 188.852 62.7771 188.85 62.7141 188.872C62.6512 188.894 62.6102 188.932 62.5911 188.987C62.5715 189.04 62.5738 189.104 62.598 189.177L62.3411 189.267C62.2936 189.114 62.2984 188.984 62.3556 188.876C62.414 188.768 62.5087 188.692 62.6397 188.646C62.7832 188.596 62.9068 188.596 63.0103 188.646C63.1134 188.695 63.1867 188.782 63.2301 188.906C63.2643 189.005 63.2705 189.108 63.2487 189.215C63.227 189.323 63.1937 189.422 63.1489 189.513C63.1037 189.602 63.0426 189.712 62.9655 189.844L63.5227 189.65L63.5989 189.869L62.6659 190.193L62.5975 189.997L62.6668 189.88Z" fill="black"/>
<path d="M64.3152 194.2C64.2776 194.071 64.288 193.959 64.3461 193.863C64.4051 193.764 64.502 193.692 64.6367 193.645C64.7287 193.613 64.8131 193.602 64.8899 193.612C64.9664 193.621 65.0306 193.647 65.0826 193.691C65.1355 193.733 65.174 193.789 65.1981 193.858C65.2257 193.938 65.2284 194.012 65.2061 194.082C65.1846 194.15 65.1489 194.204 65.0988 194.242L65.1014 194.25C65.1823 194.247 65.253 194.268 65.3135 194.312C65.3752 194.355 65.4219 194.422 65.4534 194.513C65.4797 194.588 65.4855 194.662 65.4709 194.733C65.4575 194.804 65.4227 194.869 65.3665 194.926C65.3112 194.982 65.2363 195.027 65.1419 195.06C64.9996 195.109 64.8712 195.114 64.7569 195.073C64.6425 195.032 64.5584 194.943 64.5047 194.805L64.7616 194.715C64.7856 194.776 64.8237 194.819 64.8759 194.843C64.9289 194.865 64.99 194.865 65.0593 194.841C65.1235 194.818 65.1665 194.783 65.1882 194.736C65.2107 194.688 65.2121 194.635 65.1924 194.578C65.1661 194.503 65.1233 194.457 65.0641 194.441C65.0049 194.425 64.9249 194.434 64.8241 194.469L64.7693 194.488L64.6937 194.271L64.7485 194.252C64.9273 194.19 64.9959 194.099 64.9543 193.979C64.9354 193.925 64.9043 193.889 64.8611 193.87C64.8191 193.85 64.7679 193.851 64.7074 193.872C64.6482 193.893 64.608 193.925 64.5866 193.969C64.5661 194.012 64.5619 194.059 64.5739 194.109L64.3152 194.2Z" fill="black"/>
<path d="M66.5008 198.971L66.4284 198.764L66.7384 197.665L67.0462 197.557L67.3461 198.419L67.5123 198.361L67.5925 198.591L67.4263 198.649L67.5197 198.917L67.2552 199.009L67.1619 198.741L66.5008 198.971ZM66.8974 197.927L66.7114 198.64L67.0986 198.505L66.8974 197.927Z" fill="black"/>
<rect x="136" y="506" width="50" height="113" rx="2" fill="#C2C2C2"/>
<rect x="12" y="506" width="50" height="113" rx="2" fill="#C2C2C2"/>
<path d="M146.49 619H175.51L181 632H141L146.49 619Z" fill="#C2C2C2"/>
<path d="M22.4902 619H51.5098L57 632H17L22.4902 619Z" fill="#C2C2C2"/>
<rect x="71" y="551" width="57" height="75" rx="2" fill="#C2C2C2"/>
<path d="M82 626H117L120 632H79L82 626Z" fill="#C2C2C2"/>
<circle cx="37.5" cy="586.5" r="15.5" fill="#646464"/>
<circle cx="160.5" cy="586.5" r="15.5" fill="#646464"/>
<circle cx="37.5" cy="539.5" r="15.5" fill="#646464"/>
<circle cx="160.5" cy="539.5" r="15.5" fill="#646464"/>
<circle cx="103.5" cy="588.5" r="19.5" fill="#646464"/>
<circle cx="79.5" cy="562.5" r="5.5" fill="#646464"/>
<circle cx="81.3953" cy="901.922" r="13" transform="rotate(24.1934 81.3953 901.922)" fill="#950009"/>
<circle cx="108.76" cy="914.216" r="13" transform="rotate(24.1934 108.76 914.216)" fill="#950009"/>
<circle cx="136.126" cy="926.511" r="13" transform="rotate(24.1934 136.126 926.511)" fill="#950009"/>
<circle cx="163.491" cy="938.805" r="13" transform="rotate(24.1934 163.491 938.805)" fill="#950009"/>
<rect width="28.6208" height="4.13137" rx="2.06569" transform="matrix(0.633157 0.774023 -0.773237 0.634117 165.26 897.874)" fill="#FF949B"/>
<rect width="32.438" height="4.13137" rx="2.06569" transform="matrix(0.633157 0.774023 -0.773237 0.634117 170.804 888.503)" fill="#FF949B"/>
<rect width="34.6455" height="4.13137" rx="2.06569" transform="matrix(0.633157 0.774023 -0.773237 0.634117 177.255 881.405)" fill="#FF949B"/>
<rect width="34.6455" height="4.46581" rx="2.2329" transform="matrix(-0.689488 0.724297 -0.725153 -0.688588 178.979 884.186)" fill="#FF949B"/>
<rect width="34.6455" height="4.46581" rx="2.2329" transform="matrix(-0.964831 -0.262872 0.261674 -0.965156 72.427 915.418)" fill="#FF949B"/>
<path d="M201.315 905.858L191.047 928.712C190.821 929.216 190.229 929.441 189.725 929.214L167.272 919.127C166.463 918.763 166.492 917.605 167.318 917.283L200.04 904.516C200.874 904.191 201.682 905.041 201.315 905.858Z" fill="#FF4E59"/>
<rect x="71.5732" y="870.102" width="133" height="12" rx="6" transform="rotate(24.1934 71.5732 870.102)" fill="#FF4E59"/>
<path d="M92.6066 857.626L150.919 883.824C113.45 890.094 118.171 894.463 142.402 902.779L84.0904 876.581C63.5773 878.319 63.4352 874.938 92.6066 857.626Z" fill="#FF4E59"/>
<circle cx="11.5031" cy="837.993" r="13" transform="rotate(85.9995 11.5031 837.993)" fill="#950009"/>
<circle cx="13.5961" cy="867.92" r="13" transform="rotate(85.9995 13.5961 867.92)" fill="#950009"/>
<circle cx="15.6889" cy="897.847" r="13" transform="rotate(85.9995 15.6889 897.847)" fill="#950009"/>
<circle cx="17.7819" cy="927.773" r="13" transform="rotate(85.9995 17.7819 927.773)" fill="#950009"/>
<rect width="28.6208" height="4.13137" rx="2.06569" transform="matrix(-0.383049 0.923728 -0.924203 -0.381902 54.6929 909.995)" fill="#FF949B"/>
<rect width="32.438" height="4.13137" rx="2.06569" transform="matrix(-0.383049 0.923728 -0.924203 -0.381902 65.5713 910.453)" fill="#FF949B"/>
<rect width="34.6455" height="4.13137" rx="2.06569" transform="matrix(-0.383049 0.923728 -0.924203 -0.381902 74.8755 912.786)" fill="#FF949B"/>
<path d="M64.6914 945.544L39.6972 947.292C39.1463 947.331 38.6684 946.915 38.6299 946.364L36.9125 921.809C36.8507 920.924 37.8852 920.403 38.5595 920.978L65.271 943.786C65.9517 944.367 65.5844 945.482 64.6914 945.544Z" fill="#FF4E59"/>
<rect x="34.9075" y="814.302" width="133" height="12" rx="6" transform="rotate(85.9995 34.9075 814.302)" fill="#FF4E59"/>
<path d="M55.8405 826.946L60.3003 890.717C37.0719 860.656 35.4519 866.881 39.5705 892.167L35.1106 828.396C23.887 811.138 26.7996 809.415 55.8405 826.946Z" fill="#FF4E59"/>
</svg>
